<?xml version="1.0" standalone="no"?>
<!DOCTYPE svg PUBLIC "-//W3C//DTD SVG 20010904//EN"
 "http://www.w3.org/TR/2001/REC-SVG-20010904/DTD/svg10.dtd">
<svg version="1.0" xmlns="http://www.w3.org/2000/svg"
 width="1000.000000pt" height="780.000000pt" viewBox="0 0 1000.000000 780.000000"
 preserveAspectRatio="xMidYMid meet">

<g transform="translate(0.000000,780.000000) scale(0.100000,-0.100000)"
fill="#000000" stroke="none">
<path d="M119 6373 c-7 -64 -3 -75 30 -80 24 -3 31 6 21 32 -6 16 -5 25 3 29
9 3 8 7 -3 15 -17 12 -50 15 -51 4z"/>
<path d="M300 6195 c-7 -14 -10 -28 -7 -32 4 -3 7 -1 7 6 0 7 4 10 9 7 12 -8
41 3 41 15 0 4 -8 13 -19 18 -14 8 -21 5 -31 -14z"/>
<path d="M335 6130 c-16 -7 -17 -9 -3 -9 9 -1 20 4 23 9 7 11 7 11 -20 0z"/>
<path d="M470 6014 c0 -9 -5 -12 -11 -8 -7 4 -10 1 -7 -7 5 -16 50 -19 55 -4
2 6 -6 16 -17 23 -17 10 -20 10 -20 -4z"/>
<path d="M524 5928 c2 -17 11 -24 31 -26 27 -3 28 -2 14 15 -30 39 -50 43 -45
11z"/>
<path d="M235 5813 c-20 -20 -15 -76 10 -103 19 -21 30 -70 15 -70 -22 0 -9
-67 21 -116 33 -51 142 -186 177 -217 17 -16 20 -16 25 -2 7 16 25 19 45 7 9
-7 10 -15 3 -35 -9 -24 -5 -30 52 -82 54 -48 59 -55 38 -55 -37 0 -107 -37
-118 -63 -12 -26 -1 -62 22 -71 24 -9 33 0 41 39 5 28 12 37 38 44 17 4 36 5
41 0 12 -9 65 0 65 12 0 5 8 6 18 2 13 -4 13 -2 -3 9 -11 8 -33 19 -50 24
l-30 8 38 4 c45 4 49 25 7 42 -33 14 -55 44 -44 61 3 6 3 25 0 44 -5 26 -16
39 -49 58 -23 14 -80 57 -126 95 -60 51 -94 72 -122 76 -24 4 -42 14 -49 26
-6 11 -8 20 -4 20 3 0 1 6 -5 14 -6 7 -9 20 -5 29 3 8 1 25 -6 36 -9 18 -8 21
7 19 10 -1 35 2 57 6 30 7 45 5 67 -8 33 -19 39 -8 10 18 -11 10 -24 32 -30
48 -10 29 -9 28 28 -13 50 -56 144 -114 182 -111 23 2 33 -5 54 -38 22 -35 28
-39 55 -34 19 4 38 1 54 -10 14 -9 32 -13 40 -10 8 3 21 2 28 -2 7 -4 24 -9
38 -10 14 -2 36 -6 50 -9 l25 -6 -25 20 c-14 11 -72 48 -130 83 -107 63 -160
106 -160 129 0 7 9 3 21 -9 11 -12 60 -42 109 -67 49 -24 113 -64 142 -88 30
-24 66 -52 81 -62 18 -12 24 -21 17 -25 -7 -4 3 -14 24 -24 19 -9 42 -27 51
-39 15 -21 14 -24 -23 -58 -30 -28 -45 -36 -64 -32 -14 3 -29 0 -32 -6 -11
-18 -28 -13 -22 7 9 26 -79 47 -111 26 -29 -18 -83 -19 -83 0 0 7 -10 20 -21
28 -12 7 -23 25 -24 38 -1 14 -4 36 -5 50 -2 18 -4 20 -7 7 -2 -9 -9 -15 -14
-11 -5 3 -7 10 -4 15 4 5 1 9 -4 9 -6 0 -11 9 -11 20 0 33 -18 23 -22 -12 -3
-28 -7 -33 -33 -36 -19 -3 -33 2 -41 13 -7 10 -23 15 -38 13 -23 -3 -20 -7 42
-60 37 -31 91 -66 120 -79 29 -12 52 -26 52 -31 0 -4 8 -8 17 -8 13 0 9 -9
-18 -37 -18 -21 -24 -29 -11 -19 25 22 30 15 6 -9 -12 -12 -19 -13 -30 -4 -11
9 -14 8 -14 -4 0 -15 19 -27 53 -33 9 -2 17 0 17 5 0 12 48 5 65 -9 12 -10 15
-10 15 1 0 17 50 -30 61 -58 5 -13 17 -23 27 -23 28 0 72 -38 72 -62 0 -14 5
-18 15 -14 8 3 21 9 29 12 7 3 16 -2 19 -10 6 -16 -2 -20 -35 -17 -45 5 3 -38
64 -58 21 -7 42 -10 47 -7 5 4 12 -2 16 -13 3 -11 16 -21 28 -23 33 -5 108 8
116 19 7 13 81 34 81 25 0 -4 4 -2 8 4 8 14 62 21 79 11 6 -4 14 -3 18 3 10
17 48 12 41 -5 -3 -9 0 -15 10 -15 8 0 13 4 10 9 -8 13 16 20 47 14 15 -3 33
-1 40 4 6 4 35 8 62 8 29 -1 56 5 63 12 18 18 29 16 53 -8 32 -32 42 -18 15
22 -20 29 -31 36 -61 37 -21 1 -46 -3 -58 -9 -17 -10 -19 -9 -14 5 7 18 -4 21
-20 5 -8 -8 -16 -6 -30 8 -16 16 -17 22 -6 43 8 14 10 36 7 50 -4 14 -7 39 -8
55 -1 30 -13 35 -56 24 -15 -4 -17 1 -19 52 -1 24 -7 33 -31 42 -16 6 -30 15
-30 20 0 4 -29 21 -64 37 -62 29 -66 29 -102 14 -49 -20 -103 -12 -173 26 -30
17 -62 30 -71 30 -13 0 -16 9 -15 44 1 24 5 48 9 54 3 5 -16 27 -44 47 -27 20
-58 47 -68 59 -27 35 -62 51 -74 35 -8 -11 -9 -10 -4 4 4 13 -8 24 -53 47 -32
16 -79 34 -105 41 -39 10 -50 9 -71 -5 -14 -9 -25 -23 -25 -31 0 -20 -6 -19
-40 5 -46 33 -112 60 -148 60 -25 0 -35 -6 -43 -24 l-11 -24 -46 29 c-52 33
-83 36 -107 12z m559 -558 c15 -11 16 -15 5 -15 -8 0 -24 7 -35 15 -14 11 -15
14 -4 14 8 0 24 -6 34 -14z m513 -25 c19 -7 40 -29 62 -65 l33 -55 -48 -61
c-64 -80 -75 -87 -116 -70 -18 7 -47 16 -65 18 -24 4 -34 12 -42 34 -5 16 -17
32 -25 35 -8 3 -13 11 -10 18 3 7 -3 29 -11 50 -9 21 -14 41 -11 44 3 3 6 -1
6 -8 0 -7 12 0 27 16 14 16 38 34 52 41 33 15 109 16 148 3z m216 -28 c-3 -12
-9 -19 -14 -16 -5 3 -4 14 2 25 13 26 20 21 12 -9z m-583 8 c0 -5 -5 -10 -11
-10 -5 0 -7 5 -4 10 3 6 8 10 11 10 2 0 4 -4 4 -10z m103 -27 c4 -3 2 -12 -4
-20 -9 -10 -15 -10 -25 -2 -8 6 -11 15 -8 20 6 11 28 12 37 2z m457 -71 c0 -9
-40 -35 -46 -29 -6 6 25 37 37 37 5 0 9 -3 9 -8z m60 -2 c0 -5 -5 -10 -11 -10
-5 0 -7 5 -4 10 3 6 8 10 11 10 2 0 4 -4 4 -10z m-12 -91 c-2 -6 -8 -10 -13
-10 -5 0 -11 4 -13 10 -2 6 4 11 13 11 9 0 15 -5 13 -11z"/>
<path d="M1309 5129 c-9 -17 -8 -23 2 -30 15 -9 15 -8 -21 -32 -19 -13 -21
-17 -7 -17 9 0 17 4 17 9 0 5 8 12 18 15 19 6 27 36 10 36 -5 0 -6 9 -3 20 8
26 -1 26 -16 -1z"/>
<path d="M1252 5020 c0 -14 2 -19 5 -12 2 6 2 18 0 25 -3 6 -5 1 -5 -13z"/>
<path d="M971 5677 c3 -4 34 -25 69 -47 56 -37 65 -40 78 -26 24 24 8 42 -49
54 -30 7 -65 15 -79 19 -14 3 -22 3 -19 0z"/>
<path d="M1237 5605 c-22 -8 -48 -26 -59 -40 -11 -14 -28 -25 -39 -25 -10 0
-19 -4 -19 -9 0 -18 51 3 75 31 14 16 30 26 36 22 6 -3 15 0 20 7 6 10 8 6 7
-11 -1 -29 -33 -106 -48 -115 -20 -12 -10 -23 32 -33 35 -9 51 -8 97 9 30 10
57 19 58 19 2 0 3 11 3 25 0 18 7 26 28 32 15 4 32 6 38 5 6 -1 19 7 29 17 17
19 16 20 -11 26 -16 3 -57 17 -92 31 -70 27 -100 29 -155 9z m83 -115 c0 -5
-5 -10 -11 -10 -5 0 -7 5 -4 10 3 6 8 10 11 10 2 0 4 -4 4 -10z"/>
<path d="M1226 5554 c-4 -10 -1 -14 6 -12 15 5 23 28 10 28 -5 0 -13 -7 -16
-16z"/>
<path d="M537 5546 c-3 -8 0 -17 7 -19 10 -4 12 1 9 14 -6 23 -9 24 -16 5z"/>
<path d="M565 5511 c-3 -5 -1 -12 5 -16 5 -3 10 1 10 9 0 18 -6 21 -15 7z"/>
<path d="M480 5499 c0 -5 11 -9 25 -9 14 0 25 2 25 4 0 2 -11 6 -25 8 -14 3
-25 1 -25 -3z"/>
<path d="M1526 5493 c-10 -10 -16 -12 -12 -5 9 15 -10 16 -20 1 -3 -6 -2 -14
4 -18 6 -3 12 -24 14 -45 2 -27 10 -43 27 -54 l23 -16 -3 47 c-2 26 -1 47 3
47 4 0 5 6 2 14 -3 8 -1 17 5 21 6 3 11 10 11 16 0 15 -35 10 -54 -8z"/>
<path d="M586 5472 c-3 -5 1 -9 9 -9 8 0 12 4 9 9 -3 4 -7 8 -9 8 -2 0 -6 -4
-9 -8z"/>
<path d="M20 5326 c0 -2 9 -6 20 -9 11 -3 18 -1 14 4 -5 9 -34 13 -34 5z"/>
<path d="M690 5290 c8 -5 20 -10 25 -10 6 0 3 5 -5 10 -8 5 -19 10 -25 10 -5
0 -3 -5 5 -10z"/>
<path d="M2298 5189 c6 -7 12 -21 12 -31 0 -18 1 -18 22 2 25 23 24 26 -17 35
-25 6 -28 5 -17 -6z"/>
<path d="M2400 5196 c0 -2 7 -6 15 -10 8 -3 15 -1 15 4 0 6 -7 10 -15 10 -8 0
-15 -2 -15 -4z"/>
<path d="M2440 5190 c0 -4 13 -6 30 -4 24 3 28 1 23 -14 -3 -9 -10 -22 -14
-28 -12 -16 -19 -84 -8 -84 5 0 0 -9 -11 -20 -12 -12 -25 -18 -30 -15 -6 4
-17 -1 -26 -9 -8 -9 -22 -16 -30 -16 -9 0 -14 -11 -14 -29 0 -33 -22 -56 -46
-47 -13 5 -15 15 -11 41 4 27 1 38 -13 48 -28 20 -34 60 -15 97 13 25 14 35 4
44 -9 8 -10 8 -5 -1 4 -8 1 -13 -8 -13 -9 0 -16 -5 -16 -10 0 -11 -41 -31 -78
-37 -41 -7 -73 -23 -67 -33 10 -17 -11 -43 -38 -46 -24 -2 -25 0 -18 35 1 2 8
-2 16 -9 9 -7 19 -10 22 -6 15 14 -24 25 -77 22 -30 -1 -63 2 -73 6 -12 6 -26
5 -40 -5 -15 -9 -31 -11 -49 -6 -32 8 -35 1 -12 -27 8 -10 13 -13 9 -6 -3 6
-3 12 2 13 4 0 18 2 30 5 12 2 28 -3 36 -11 8 -8 17 -12 20 -9 3 4 15 -1 27
-9 18 -12 19 -15 5 -21 -9 -3 -13 -2 -10 4 14 22 -8 7 -53 -35 -26 -25 -56
-45 -67 -45 -19 0 -45 -38 -45 -66 0 -7 6 -15 13 -18 14 -7 -64 0 -108 9 -27
5 -33 2 -55 -32 -14 -21 -26 -40 -27 -43 -2 -3 94 -5 212 -5 145 0 215 3 215
11 0 5 6 19 14 29 13 18 15 18 40 1 19 -12 25 -23 21 -35 -5 -16 3 -19 57 -25
39 -4 64 -2 68 4 5 7 11 6 18 -3 8 -9 54 -19 119 -27 102 -13 184 -32 473
-112 133 -37 225 -55 217 -41 -9 14 61 7 79 -8 13 -11 18 -11 21 -2 3 9 10 10
23 3 13 -7 22 -4 35 10 23 25 50 26 67 2 9 -14 32 -21 78 -26 101 -10 234 -49
270 -80 17 -14 38 -26 47 -26 12 0 13 -3 4 -13 -8 -10 -4 -20 17 -39 40 -36
88 -68 104 -68 8 0 23 -6 34 -14 17 -13 15 -14 -26 -9 -25 4 -62 14 -83 23
-50 23 -106 10 -130 -28 -9 -15 -28 -39 -42 -55 l-25 -28 -39 41 c-21 22 -45
40 -53 40 -8 0 -25 11 -38 25 -24 25 -40 25 -40 -1 0 -8 8 -14 19 -14 10 0 32
-12 48 -27 17 -16 43 -39 59 -52 16 -13 29 -34 30 -50 1 -24 -4 -30 -35 -41
-53 -18 -68 -36 -81 -93 -7 -29 -18 -62 -26 -74 -8 -12 -14 -29 -14 -38 0 -8
-4 -15 -10 -15 -5 0 -13 -11 -16 -26 -8 -30 49 -184 78 -211 55 -51 68 -68 68
-86 0 -11 8 -29 18 -40 17 -20 17 -20 -10 -3 -25 17 -27 17 -37 -2 -5 -10 -13
-42 -17 -70 -10 -78 -39 -87 -36 -12 2 33 -4 46 -25 66 -23 21 -25 28 -15 44
7 12 8 21 2 25 -15 9 -12 51 4 64 12 10 7 27 -32 104 -54 110 -48 102 -66 88
-11 -9 -20 -4 -45 26 -17 21 -31 42 -31 48 0 28 -49 64 -115 85 -106 34 -161
68 -229 142 l-63 67 -13 -65 c-8 -35 -18 -64 -24 -64 -5 0 0 -10 12 -23 14
-15 19 -30 15 -45 -7 -27 23 -92 42 -92 18 0 45 -39 45 -63 0 -16 -3 -17 -15
-7 -9 8 -13 21 -10 34 5 15 4 17 -3 7 -8 -11 -13 -8 -27 13 -12 19 -23 25 -36
21 -11 -4 -19 -2 -19 5 0 6 4 8 10 5 6 -4 7 1 3 11 -4 11 -8 13 -11 6 -7 -22
-23 -12 -18 11 3 12 -3 4 -13 -18 -15 -29 -17 -42 -8 -47 9 -6 9 -8 0 -8 -7 0
-13 -5 -13 -11 0 -5 5 -7 12 -3 7 4 8 3 4 -5 -4 -6 -12 -9 -17 -6 -13 9 -11
-9 4 -24 7 -9 7 -11 1 -8 -7 4 -15 0 -18 -9 -9 -22 -8 -26 6 -18 7 4 8 3 4 -4
-10 -16 7 -15 23 1 11 10 11 8 0 -10 -12 -20 -15 -21 -29 -8 -19 18 -27 12
-46 -34 -11 -27 -12 -36 -2 -42 9 -6 3 -22 -22 -58 -34 -49 -50 -62 -50 -41 0
6 -9 10 -20 10 -23 0 -26 -13 -7 -28 7 -6 70 -36 139 -66 70 -30 159 -76 200
-103 40 -26 76 -49 79 -51 4 -2 11 10 17 27 17 47 53 64 140 66 80 2 113 -4
114 -20 0 -6 4 -9 10 -7 5 1 7 -2 3 -8 -3 -5 6 -30 20 -55 15 -25 24 -45 21
-45 -4 0 1 -14 9 -30 9 -18 16 -57 16 -95 1 -57 11 -84 21 -56 2 5 14 11 28
14 14 2 19 2 12 0 -8 -3 -11 -11 -8 -18 3 -8 0 -15 -7 -18 -6 -2 2 -8 19 -14
23 -8 40 -7 69 3 43 15 55 11 55 -16 0 -21 18 -26 133 -36 l77 -6 0 31 c0 30
-13 41 -25 21 -9 -15 -42 -12 -59 6 -11 11 -26 14 -49 10 l-32 -6 33 15 c33
16 39 33 22 66 -14 25 -26 24 -54 -6 -19 -21 -25 -23 -30 -10 -3 8 -2 15 3 15
4 0 7 10 7 22 -1 19 4 23 38 23 29 1 40 -3 44 -17 2 -10 10 -18 16 -18 6 0 23
-13 38 -30 30 -34 74 -55 83 -39 4 6 29 7 63 4 56 -7 57 -6 70 23 7 17 21 32
30 34 12 3 4 11 -25 26 -55 29 -60 39 -29 63 31 24 33 49 8 72 -40 36 -150 7
-163 -43 -5 -24 -6 -23 -22 14 -10 21 -45 65 -80 98 -61 59 -61 59 -9 18 l52
-42 68 7 c37 5 97 8 134 9 60 1 70 4 98 31 39 37 46 65 26 103 -21 41 -20 109
2 152 34 63 175 148 210 126 15 -9 21 18 29 126 l6 100 -113 -57 c-62 -31
-131 -68 -154 -83 -164 -105 -314 -239 -379 -337 -21 -33 -36 -49 -32 -35 27
95 177 262 333 368 148 102 359 193 535 232 32 8 54 17 50 21 -11 10 -101 34
-238 63 -172 37 -191 43 -280 86 -52 25 -96 55 -125 86 -38 40 -40 45 -15 29
17 -9 44 -28 61 -41 43 -32 83 -46 277 -99 93 -25 219 -65 280 -89 62 -23 171
-60 242 -80 72 -21 189 -56 262 -77 72 -21 133 -39 135 -39 2 0 5 12 6 26 1
14 6 32 10 41 8 13 11 13 23 0 8 -8 25 -18 38 -22 12 -4 20 -9 17 -13 -4 -3 6
-14 21 -24 16 -9 30 -30 33 -45 4 -23 11 -28 35 -29 47 -1 51 -3 52 -25 1 -14
-3 -19 -13 -15 -11 4 -11 0 3 -19 25 -34 51 -44 29 -10 -9 14 -12 25 -7 25 5
0 17 3 27 7 12 4 15 3 10 -5 -4 -7 -2 -12 4 -12 6 0 15 -11 20 -25 11 -30 26
-32 39 -6 7 13 18 17 36 14 19 -4 25 -1 25 12 0 9 8 19 19 22 10 2 24 16 32
29 11 22 35 31 27 10 -4 -11 42 -35 70 -36 18 0 21 -4 16 -24 -7 -28 18 -56
51 -56 35 0 40 -41 5 -45 -3 -1 -26 -4 -52 -8 l-46 -8 25 -39 c23 -35 29 -38
57 -33 17 2 46 11 64 19 18 8 37 12 43 8 7 -4 20 -7 31 -8 10 -1 27 -14 38
-31 l19 -30 -2 30 c-1 17 -6 33 -12 37 -14 10 -1 18 14 8 18 -10 18 -58 1
-109 -19 -59 -70 -84 -155 -76 -62 6 -65 6 -65 -15 0 -12 9 -33 20 -47 11 -14
20 -33 19 -42 0 -9 -7 -2 -15 16 -7 17 -18 34 -24 38 -5 3 -10 23 -10 44 0 59
-19 144 -35 160 -13 14 -15 12 -15 -12 0 -19 -7 -31 -23 -38 -13 -6 -29 -19
-35 -30 -10 -16 -10 -21 4 -26 9 -3 29 -2 45 4 22 9 29 8 33 -4 10 -24 7 -41
-7 -46 -21 -8 -116 12 -154 33 l-34 18 33 7 c18 4 41 12 52 17 16 9 14 12 -20
34 -44 26 -62 31 -45 11 8 -11 2 -18 -27 -33 -27 -14 -38 -27 -40 -47 -2 -15
-10 -27 -17 -27 -21 0 -27 17 -13 40 18 28 -1 56 -36 52 -21 -2 -26 2 -26 18
0 17 -4 20 -22 15 -18 -5 -20 -4 -8 4 13 9 13 11 -2 11 -11 0 -15 6 -11 19 3
10 0 22 -6 25 -26 16 -6 55 31 60 19 3 19 18 0 23 -12 3 -22 10 -22 15 0 5 5
6 10 3 6 -3 10 -3 10 1 0 9 -32 33 -45 34 -5 0 -3 -5 5 -11 12 -9 11 -10 -8
-6 -15 4 -28 -2 -41 -19 l-20 -25 -25 22 c-19 17 -26 32 -26 60 0 43 -5 46
-180 104 -63 21 -128 44 -145 51 -108 43 -244 93 -266 99 -18 4 -55 -5 -120
-30 -52 -20 -97 -39 -101 -43 -11 -11 -40 -234 -42 -322 -2 -50 -9 -90 -23
-121 -21 -48 -78 -119 -95 -119 -6 0 1 11 15 25 34 35 43 72 21 96 -47 52
-164 -17 -164 -98 0 -21 6 -36 15 -39 8 -4 15 -10 15 -15 0 -16 -60 -77 -88
-88 -23 -10 -28 -17 -24 -40 3 -19 -4 -37 -22 -58 l-26 -30 93 -46 c176 -88
384 -160 498 -173 45 -5 63 -3 88 12 73 43 114 146 136 338 9 72 20 156 25
187 16 86 -10 192 -64 263 -36 49 -40 64 -7 26 17 -19 46 -64 64 -100 28 -57
32 -74 32 -145 0 -79 -21 -330 -31 -371 -5 -18 0 -22 38 -28 42 -7 182 -65
174 -73 -2 -2 -25 5 -52 15 -61 24 -127 36 -154 27 -11 -4 -31 -29 -45 -60
-32 -66 -91 -122 -141 -131 -74 -14 -275 41 -459 126 -92 42 -99 45 -91 32 3
-5 -8 -22 -24 -37 l-30 -28 34 -21 c36 -23 86 -77 86 -95 0 -16 72 -80 98 -87
12 -3 22 -10 22 -15 0 -10 85 -69 100 -69 6 0 24 -10 40 -22 16 -12 32 -19 35
-16 8 8 -13 58 -25 58 -5 0 -10 7 -10 15 0 9 -14 24 -30 33 -17 9 -28 22 -26
28 2 6 -14 10 -44 11 -28 0 -60 7 -74 16 -14 10 -32 17 -41 17 -14 0 -14 3 0
30 9 17 19 30 23 31 4 0 25 2 47 3 22 2 59 7 82 11 40 7 43 6 53 -19 5 -15 9
-30 9 -34 -3 -20 3 -30 26 -40 20 -9 24 -17 20 -35 -4 -16 0 -29 14 -41 12
-11 21 -24 21 -29 0 -6 10 -24 23 -41 13 -17 26 -38 29 -47 4 -9 52 -36 109
-59 56 -24 148 -71 203 -105 154 -93 213 -124 220 -118 3 4 6 1 6 -6 0 -7 4
-9 10 -6 6 3 10 1 10 -4 0 -15 98 -63 118 -59 9 2 22 -2 27 -8 12 -15 60 -30
52 -17 -4 6 9 27 28 47 32 35 35 36 57 22 13 -8 39 -16 59 -17 26 -2 35 -7 32
-16 -3 -7 0 -13 6 -13 6 0 11 -6 11 -13 0 -7 14 -18 31 -24 25 -10 30 -17 26
-33 -3 -13 -1 -18 6 -13 7 4 8 0 4 -11 -4 -10 -3 -15 3 -11 6 3 10 2 10 -3 0
-9 44 -24 110 -37 30 -7 33 -6 22 8 -8 10 -9 17 -3 21 6 4 15 -3 21 -14 6 -11
7 -20 3 -20 -4 0 -1 -5 7 -10 8 -5 34 -10 56 -10 23 0 59 -7 80 -16 31 -13 62
-15 149 -12 108 5 245 32 245 49 0 5 7 5 17 2 11 -4 14 -3 9 6 -6 9 0 10 20 5
18 -5 25 -3 21 3 -6 10 8 21 23 20 15 -1 50 26 50 38 0 8 9 15 20 15 17 0 18
-3 10 -26 -10 -26 -10 -26 21 -20 17 3 35 6 40 6 5 0 5 8 0 17 -6 10 -12 30
-15 45 -5 23 -12 27 -56 33 -28 4 -77 15 -110 25 -59 18 -59 18 -75 -4 -16
-21 -16 -21 -11 5 5 23 1 28 -32 42 l-37 15 36 -5 c27 -4 55 5 127 39 51 24
92 41 92 38 0 -3 -37 -24 -82 -47 -46 -23 -76 -44 -68 -46 163 -48 436 -51
624 -8 45 11 77 8 45 -4 -48 -17 -231 -55 -267 -55 -40 0 -43 -2 -37 -21 5
-14 2 -25 -6 -30 -42 -27 259 32 358 70 157 61 398 234 548 393 59 63 73 83
64 94 -15 18 -3 34 26 34 19 0 29 11 51 58 53 113 41 264 -35 406 -40 76 -108
159 -122 150 -5 -3 -9 1 -9 9 0 15 -89 80 -131 96 -15 5 -37 7 -50 4 -18 -3
-20 -2 -10 5 11 8 5 12 -25 17 -21 3 -49 8 -62 11 -16 3 -32 -4 -53 -26 -30
-29 -62 -33 -38 -4 9 11 9 14 0 14 -21 0 -51 -20 -51 -35 0 -19 -21 -30 -30
-15 -6 9 -12 9 -30 0 -14 -7 -46 -10 -81 -8 -58 4 -58 4 -52 -21 5 -19 3 -23
-10 -18 -9 3 -33 -2 -54 -13 -62 -30 -86 -40 -133 -53 -43 -12 -45 -15 -54
-59 -8 -42 -11 -45 -39 -44 -36 2 -52 33 -42 84 l6 32 -43 0 c-24 0 -52 7 -62
15 -11 8 -26 15 -33 15 -8 0 -38 18 -67 39 -45 34 -54 46 -60 80 -4 27 -19 55
-42 81 -20 22 -32 40 -26 40 18 0 59 -57 78 -107 19 -54 48 -88 82 -98 16 -5
22 -2 22 10 0 9 4 14 10 10 5 -3 7 -12 4 -20 -4 -8 6 -20 25 -30 17 -8 31 -13
31 -9 0 4 6 1 13 -5 8 -6 16 -8 19 -5 3 3 36 6 72 6 37 1 70 6 73 12 9 14 14
52 14 100 -1 47 8 42 20 -12 5 -23 5 -52 -1 -72 -5 -19 -8 -36 -5 -38 8 -9
126 28 155 48 41 29 38 46 -13 59 -24 6 -84 29 -133 52 -49 22 -123 54 -165
70 -64 25 -86 40 -141 97 -35 37 -91 102 -123 145 -56 76 -58 77 -81 62 -17
-11 -30 -12 -48 -6 -13 6 -27 7 -30 4 -3 -3 -12 -1 -20 6 -7 6 -35 12 -61 13
l-47 1 28 17 c24 15 96 28 114 20 3 -1 18 -4 34 -6 l29 -3 -34 35 c-31 32 -77
63 -96 65 -5 1 -7 5 -6 10 2 4 -3 6 -11 3 -7 -3 -16 2 -20 11 -5 15 -96 61
-134 69 -9 1 -30 8 -45 14 -37 15 -50 15 -41 0 4 -7 -1 -6 -12 3 -31 25 -133
71 -144 64 -5 -3 -7 0 -4 9 6 17 -147 194 -230 265 -66 57 -116 77 -260 107
-66 13 -144 35 -174 49 -30 14 -57 23 -60 21 -2 -3 8 -16 22 -29 14 -13 26
-29 26 -35 0 -12 71 -70 113 -91 35 -18 48 -43 20 -38 -10 1 -24 6 -31 11 -52
32 -115 24 -126 -17 -4 -17 -18 -30 -44 -40 -51 -20 -69 -42 -52 -62 10 -12 9
-16 -4 -21 -22 -8 -20 -49 4 -102 10 -23 17 -49 14 -56 -3 -8 4 -23 16 -34
l22 -20 -26 -17 c-14 -9 -30 -13 -37 -9 -7 4 -10 2 -7 -7 3 -8 10 -14 16 -14
13 0 17 -14 5 -16 -5 0 -14 -6 -21 -12 -18 -15 -35 12 -20 30 8 10 7 18 -5 31
-8 9 -18 33 -22 53 -6 30 -3 39 19 60 29 27 33 39 11 39 -11 0 -12 5 -5 25 11
29 7 32 -47 38 -31 4 -51 15 -78 41 -39 39 -56 44 -75 21 -16 -19 -30 -19 -44
0 -6 8 -21 17 -34 20 -57 11 -62 15 -62 54 0 32 -6 43 -39 69 -35 28 -50 33
-113 37 -40 2 -74 9 -76 15 -2 5 -12 10 -22 10 -30 0 -110 38 -110 52 0 8 -14
29 -31 47 -16 18 -27 36 -23 40 4 3 9 0 11 -7 3 -6 9 -9 14 -6 5 3 28 -4 51
-16 37 -19 46 -20 85 -9 34 9 43 16 42 33 -1 17 -2 17 -6 4 -8 -30 -19 -20
-20 17 -1 31 3 37 35 52 l35 17 -74 22 c-41 13 -87 30 -102 40 -30 17 -47 20
-182 33 -44 4 -97 15 -119 24 -21 10 -50 17 -64 17 -14 0 -33 6 -41 14 -9 8
-64 22 -122 32 -93 15 -114 16 -162 4 -36 -8 -79 -10 -124 -6 -53 5 -78 3
-107 -9 -47 -20 -78 -14 -96 20 -21 39 -45 31 -69 -22 l-22 -48 6 47 6 48
-235 -1 c-130 0 -236 -4 -236 -9z m340 -99 c0 -12 -3 -12 -12 -3 -18 18 -56
15 -67 -5 -5 -10 -13 -14 -18 -10 -4 5 4 19 20 32 15 13 27 29 27 34 0 6 11 1
25 -11 14 -12 25 -28 25 -37z m865 -21 c-4 -6 -24 -18 -46 -27 -51 -20 -50
-33 4 -34 l42 -2 -42 -6 c-23 -4 -49 -14 -59 -21 -15 -14 -16 -13 -10 8 6 17
2 27 -16 41 l-23 19 26 -5 c16 -3 42 3 65 16 43 22 69 27 59 11z m-818 -6 c-3
-3 -12 -4 -19 -1 -8 3 -5 6 6 6 11 1 17 -2 13 -5z m903 -18 c0 -16 -18 -31
-27 -22 -8 8 5 36 17 36 5 0 10 -6 10 -14z m-335 -7 c11 -17 -1 -21 -15 -4 -8
9 -8 15 -2 15 6 0 14 -5 17 -11z m-581 -29 c8 -10 1 -11 -33 -7 -24 3 -49 11
-55 17 -8 10 -1 11 33 7 24 -3 49 -11 55 -17z m580 -19 c28 -5 53 -15 58 -25
5 -9 16 -16 23 -16 8 0 15 -6 15 -14 0 -29 -56 -34 -138 -12 -29 7 -52 10 -52
5 0 -4 8 -10 18 -12 15 -4 15 -5 1 -6 -17 -1 -79 47 -79 61 0 9 56 26 85 27
11 0 42 -4 69 -8z m-274 -13 c0 -19 -11 -31 -49 -58 l-34 -24 6 25 c4 13 7 30
7 37 0 6 9 12 19 12 11 0 23 5 26 10 9 14 25 12 25 -2z m690 -8 c0 -5 -7 -10
-16 -10 -8 0 -12 5 -9 10 3 6 10 10 16 10 5 0 9 -4 9 -10z m-1694 -26 c-11 -7
-22 -11 -25 -8 -3 3 3 12 13 20 11 7 22 11 25 8 3 -3 -3 -12 -13 -20z m424 16
c12 -8 11 -10 -5 -10 -12 0 -26 -5 -33 -12 -7 -7 -12 -8 -12 -2 0 11 20 34 30
34 3 0 12 -5 20 -10z m1245 -18 c-3 -3 -11 0 -18 7 -9 10 -8 11 6 5 10 -3 15
-9 12 -12z m-115 -12 c0 -12 -10 -24 -24 -29 -13 -5 -26 -17 -30 -27 -4 -9 -9
-14 -13 -10 -4 3 -20 -6 -36 -21 -20 -19 -31 -24 -34 -15 -3 6 -9 10 -14 6 -5
-3 -9 0 -9 6 0 7 7 9 17 6 18 -7 52 23 45 42 -2 7 2 10 12 6 9 -3 16 -2 16 4
0 5 -10 13 -22 16 l-23 6 25 15 c14 8 40 14 58 15 26 0 32 -4 32 -20z m47 4
c-3 -3 -12 -4 -19 -1 -8 3 -5 6 6 6 11 1 17 -2 13 -5z m40 0 c-3 -3 -12 -4
-19 -1 -8 3 -5 6 6 6 11 1 17 -2 13 -5z m-1692 -20 c-14 -11 -16 -18 -7 -21 6
-3 12 -9 12 -15 0 -6 -6 -5 -15 2 -13 10 -21 10 -43 1 -34 -16 -23 -4 25 25
44 27 57 30 28 8z m-85 -9 c0 -8 -5 -15 -11 -15 -8 0 -8 -4 0 -13 8 -10 7 -18
-3 -32 -13 -18 -13 -17 -12 6 1 13 -3 27 -9 31 -6 5 -6 8 3 8 6 0 12 7 12 15
0 8 5 15 10 15 6 0 10 -7 10 -15z m1875 5 c4 -6 -5 -10 -19 -10 -14 0 -26 5
-26 10 0 6 9 10 19 10 11 0 23 -4 26 -10z m-1610 -31 c6 -19 -7 -38 -26 -39
-14 0 -29 28 -23 44 9 23 41 20 49 -5z m1135 -4 c7 -8 8 -15 2 -15 -5 0 -15 7
-22 15 -7 8 -8 15 -2 15 5 0 15 -7 22 -15z m-160 -4 c0 -5 -9 -7 -20 -4 -11 3
-20 7 -20 9 0 2 9 4 20 4 11 0 20 -4 20 -9z m-173 -23 c-3 -8 -6 -5 -6 6 -1
11 2 17 5 13 3 -3 4 -12 1 -19z m-1187 -9 c0 -6 -4 -7 -10 -4 -5 3 -10 11 -10
16 0 6 5 7 10 4 6 -3 10 -11 10 -16z m75 1 c-3 -5 -12 -10 -18 -10 -7 0 -6 4
3 10 19 12 23 12 15 0z m1518 -29 c13 -10 20 -11 31 -1 12 9 15 8 15 -7 1 -36
13 -83 21 -78 5 3 11 1 15 -5 8 -13 -33 -22 -81 -18 -33 2 -40 7 -42 27 -3 17
4 31 20 43 21 17 22 19 6 29 -10 5 -18 18 -18 27 0 10 3 13 8 7 4 -5 15 -16
25 -24z m327 -11 c0 -5 -4 -10 -10 -10 -5 0 -10 5 -10 10 0 6 5 10 10 10 6 0
10 -4 10 -10z m-507 -24 c4 -10 1 -13 -9 -9 -10 3 -14 -2 -14 -19 0 -13 3 -28
8 -34 4 -5 -1 -1 -10 9 -28 30 -22 62 13 66 4 1 9 -6 12 -13z m112 -66 c3 -5
-1 -10 -9 -10 -21 0 -21 -26 0 -34 8 -3 12 -11 9 -17 -5 -7 -11 -7 -17 -1 -7
7 -19 7 -34 2 -26 -10 -34 3 -10 17 7 4 18 18 25 31 13 24 26 28 36 12z m-518
-6 c-3 -3 -12 -4 -19 -1 -8 3 -5 6 6 6 11 1 17 -2 13 -5z m1401 -1 c-10 -2
-26 -2 -35 0 -10 3 -2 5 17 5 19 0 27 -2 18 -5z m-1243 -52 c-3 -10 1 -24 10
-31 8 -7 15 -20 14 -29 0 -11 -3 -9 -9 7 -5 12 -16 22 -25 22 -18 0 -19 16 -2
35 16 19 19 18 12 -4z m2099 -16 c49 -30 29 -44 -27 -20 -36 15 -44 25 -30 38
10 10 14 9 57 -18z m-802 -27 c-7 -7 -12 -8 -12 -2 0 6 3 14 7 17 3 4 9 5 12
2 2 -3 -1 -11 -7 -17z m-198 -30 c8 -13 8 -23 0 -35 -16 -26 -51 -28 -64 -4
-25 47 36 83 64 39z m186 -7 c0 -6 -4 -13 -10 -16 -5 -3 -10 1 -10 9 0 9 5 16
10 16 6 0 10 -4 10 -9z m62 -56 c41 -38 21 -95 -34 -95 -30 0 -78 38 -78 63 0
19 21 37 42 37 10 0 18 5 18 10 0 18 24 11 52 -15z m142 -28 c7 -6 6 -7 -4 -4
-8 2 -16 16 -17 33 -1 25 0 26 4 4 3 -14 10 -29 17 -33z m891 31 c33 -15 27
-32 -13 -36 -37 -4 -72 13 -72 33 0 18 48 20 85 3z m-625 -18 c0 -5 -2 -10 -4
-10 -3 0 -8 5 -11 10 -3 6 -1 10 4 10 6 0 11 -4 11 -10z m-955 -18 c-3 -3 -11
0 -18 7 -9 10 -8 11 6 5 10 -3 15 -9 12 -12z m1226 -9 c-8 -15 -10 -15 -11 -2
0 17 10 32 18 25 2 -3 -1 -13 -7 -23z m-396 -23 c3 -5 2 -10 -4 -10 -5 0 -13
5 -16 10 -3 6 -2 10 4 10 5 0 13 -4 16 -10z m-72 -22 c9 -7 18 -24 19 -38 3
-21 -2 -26 -24 -28 -41 -5 -34 -18 15 -27 23 -4 38 -9 32 -11 -5 -2 -44 5 -85
16 -41 11 -58 17 -37 14 35 -5 37 -4 26 14 -16 26 -4 72 19 72 10 0 26 -6 35
-12z m-119 -6 c3 -5 -1 -9 -9 -9 -8 0 -12 4 -9 9 3 4 7 8 9 8 2 0 6 -4 9 -8z
m627 -23 c-9 -22 -10 -22 -10 -3 -1 11 2 24 6 27 12 12 14 0 4 -24z m295 -64
c-80 -74 -175 -127 -261 -146 -33 -7 -63 -17 -66 -22 -4 -5 -10 -4 -14 3 -9
14 -1 23 26 27 52 8 162 61 252 120 53 36 100 69 103 74 3 5 11 9 17 9 7 -1
-19 -30 -57 -65z m-161 -7 c19 -18 19 -18 -1 -18 -29 0 -88 41 -92 64 -4 17
-1 17 34 -4 22 -13 48 -31 59 -42z m302 20 c-2 -7 0 -23 4 -35 7 -18 5 -23 -7
-23 -8 0 -12 -5 -9 -11 4 -6 13 -8 21 -5 8 3 14 1 14 -3 0 -5 -7 -11 -15 -15
-20 -7 -19 -22 1 -30 11 -4 18 1 21 14 6 22 11 24 30 12 7 -4 10 -17 6 -30 -6
-24 -22 -24 -71 0 -18 10 -22 19 -20 50 1 21 6 38 10 38 5 0 8 6 7 13 -2 20 1
37 7 37 3 0 4 -6 1 -12z m-1212 -18 c13 -5 14 -9 5 -9 -8 0 -24 4 -35 9 -13 5
-14 9 -5 9 8 0 24 -4 35 -9z m1116 -60 c-1 -19 -10 -43 -20 -53 -16 -16 -17
-15 -16 28 1 25 6 50 12 56 6 6 9 19 6 28 -3 10 0 8 8 -4 7 -11 12 -36 10 -55z
m-771 45 c0 -8 -2 -15 -4 -15 -2 0 -6 7 -10 15 -3 8 -1 15 4 15 6 0 10 -7 10
-15z m-679 -25 c33 -18 22 -32 -23 -27 -24 3 -52 9 -63 13 -18 8 -17 9 10 15
46 10 55 10 76 -1z m434 -10 c4 -6 -13 -10 -44 -10 -27 0 -53 5 -56 10 -4 6
13 10 44 10 27 0 53 -4 56 -10z m215 -19 c0 -8 -90 -3 -99 5 -2 2 19 4 47 4
29 0 52 -4 52 -9z m216 -9 c-21 -2 -42 0 -47 5 -4 4 13 6 39 3 l47 -5 -39 -3z
m132 -9 c-10 -2 -26 -2 -35 0 -10 3 -2 5 17 5 19 0 27 -2 18 -5z m-76 -17 c13
-10 15 -15 6 -24 -8 -8 -9 -12 -1 -12 6 0 13 -6 16 -14 4 -9 -5 -7 -27 7 -28
18 -34 31 -27 55 2 6 17 0 33 -12z m-144 -67 c-2 -6 -8 -10 -13 -10 -5 0 -11
4 -13 10 -2 6 4 11 13 11 9 0 15 -5 13 -11z m239 -3 c4 -4 8 -15 8 -24 0 -11
7 -16 18 -14 9 2 17 0 17 -4 0 -14 -35 -64 -48 -69 -12 -4 -12 -3 -3 9 10 11
9 16 -2 23 -18 11 -48 73 -36 73 6 0 7 5 4 10 -7 11 30 8 42 -4z m649 -7 c24
-6 44 -15 44 -20 0 -5 25 -9 55 -9 40 0 56 4 63 17 9 14 11 14 22 -6 8 -17 9
-26 1 -34 -8 -8 -11 -6 -11 9 0 14 -5 10 -16 -13 -10 -19 -28 -36 -47 -43 -29
-10 -34 -8 -54 17 -13 15 -23 25 -23 20 0 -4 -18 2 -41 13 -23 12 -43 19 -46
17 -2 -3 5 -8 16 -12 22 -7 27 -20 12 -29 -5 -3 -11 1 -15 9 -3 8 -12 15 -20
15 -16 0 -29 37 -15 46 5 3 6 10 3 16 -5 8 -1 9 11 5 10 -4 37 -12 61 -18z
m143 5 c2 -2 2 -7 -2 -10 -8 -9 -47 6 -47 17 0 9 37 3 49 -7z m-2148 -41 c13
-16 12 -17 -3 -4 -17 13 -22 21 -14 21 2 0 10 -8 17 -17z m1770 -15 c30 -24
42 -29 48 -19 9 14 32 -4 52 -40 5 -11 13 -18 17 -15 4 2 15 -11 24 -30 16
-31 16 -33 0 -26 -23 9 -51 43 -52 65 0 9 -5 17 -11 17 -6 0 -9 -8 -7 -18 9
-33 -54 -88 -86 -76 -12 4 -15 2 -10 -9 3 -8 1 -18 -5 -22 -7 -3 -11 2 -11 14
0 13 -8 21 -22 23 -19 2 -23 10 -23 38 -1 19 -4 49 -9 67 -6 28 -4 33 21 47
15 8 29 15 31 16 2 0 21 -14 43 -32z m23 17 c3 -8 2 -15 -3 -15 -5 0 -14 7
-21 15 -10 12 -10 15 3 15 8 0 17 -7 21 -15z m-2518 -60 c3 -8 -1 -22 -10 -30
-9 -9 -16 -23 -16 -30 0 -8 -6 -12 -14 -9 -12 4 -11 12 3 45 17 41 28 48 37
24z m1808 -45 c9 -22 16 -47 16 -55 0 -9 32 -77 71 -152 90 -174 111 -230 143
-384 14 -68 29 -135 32 -149 13 -58 -16 1 -40 83 -15 48 -31 85 -35 83 -4 -3
-6 5 -4 17 6 31 -38 147 -112 298 -35 71 -69 154 -75 186 -6 32 -15 70 -20 86
-14 42 6 32 24 -13z m-874 15 c-7 -8 -19 -15 -26 -15 -8 0 -14 7 -14 15 0 10
10 15 26 15 22 0 25 -2 14 -15z m1940 -31 c0 -2 -5 -15 -12 -29 -7 -17 -19
-25 -36 -25 -14 0 -31 -8 -38 -17 -12 -16 -16 -11 -13 13 0 4 -5 10 -12 15 -8
4 -10 11 -6 16 5 4 11 2 15 -4 10 -16 49 -13 49 4 0 7 -4 13 -8 13 -5 0 -6 6
-3 13 3 9 16 12 34 9 17 -2 30 -6 30 -8z m100 -44 c0 -13 -19 -22 -30 -15 -14
9 0 34 16 28 8 -3 14 -9 14 -13z m245 -18 c-3 -10 0 -12 10 -8 8 3 15 1 15 -4
0 -14 -22 -12 -42 4 -23 17 -23 22 2 22 13 0 19 -5 15 -14z m-3398 -14 c-3 -8
-6 -5 -6 6 -1 11 2 17 5 13 3 -3 4 -12 1 -19z m3233 12 c0 -5 -5 -10 -11 -10
-5 0 -7 5 -4 10 3 6 8 10 11 10 2 0 4 -4 4 -10z m-210 -8 c0 -4 -9 -13 -20
-20 -16 -10 -20 -10 -20 2 0 8 6 17 13 19 19 8 27 8 27 -1z m130 -16 c0 -3 -4
-8 -10 -11 -5 -3 -10 -1 -10 4 0 6 5 11 10 11 6 0 10 -2 10 -4z m57 -16 c-3
-11 -1 -22 4 -26 5 -3 3 -11 -4 -18 -18 -20 -30 5 -17 38 11 31 25 35 17 6z
m240 6 c0 -8 -6 -12 -14 -9 -7 3 -10 9 -7 14 8 14 21 11 21 -5z m-3109 -56
c-15 -23 -35 -25 -60 -6 -27 20 -21 41 15 51 26 8 34 7 45 -7 10 -14 10 -21 0
-38z m2777 14 c30 -51 28 -71 -2 -27 -18 25 -36 73 -28 73 2 0 15 -21 30 -46z
m-2905 26 c0 -5 -2 -10 -4 -10 -3 0 -8 5 -11 10 -3 6 -1 10 4 10 6 0 11 -4 11
-10z m2835 -11 c-8 -12 -45 -12 -45 0 0 10 30 20 43 14 4 -3 5 -9 2 -14z
m-106 2 c9 -6 10 -11 2 -15 -13 -8 -31 1 -31 15 0 11 11 11 29 0z m-2905 -11
c38 -14 33 -34 -6 -26 -37 7 -42 11 -33 25 8 13 8 13 39 1z m2994 -37 c-3 -26
0 -28 30 -27 21 1 32 -3 32 -11 0 -8 10 -15 23 -18 20 -3 20 -4 3 -12 -12 -5
-21 -3 -27 6 -6 10 -11 11 -16 3 -5 -6 -19 -14 -33 -18 -19 -6 -21 -5 -10 3
13 9 12 12 -4 24 -13 9 -17 20 -13 32 6 13 3 16 -10 11 -15 -6 -15 -4 2 14 24
26 27 25 23 -7z m209 10 c-9 -9 -20 -13 -24 -9 -4 4 -1 11 7 16 25 16 35 11
17 -7z m53 7 c0 -5 -4 -10 -10 -10 -5 0 -10 5 -10 10 0 6 5 10 10 10 6 0 10
-4 10 -10z m-3163 -57 c-3 -10 -5 -4 -5 12 0 17 2 24 5 18 2 -7 2 -21 0 -30z
m3203 17 c8 -5 11 -10 5 -10 -5 0 -17 5 -25 10 -8 5 -10 10 -5 10 6 0 17 -5
25 -10z m-152 -28 c2 -7 -2 -10 -12 -6 -9 3 -16 11 -16 16 0 13 23 5 28 -10z
m-2672 -10 c32 -21 16 -78 -21 -71 -10 2 -27 17 -39 32 -18 24 -19 29 -6 37
18 12 51 13 66 2z m1912 -4 c23 -23 11 -27 -72 -26 -64 1 -83 4 -79 14 8 21
132 31 151 12z m-2267 -33 c13 4 19 2 19 -9 0 -28 -45 -13 -47 15 -1 15 0 18
3 6 4 -12 12 -16 25 -12z m134 4 c11 -16 1 -19 -13 -3 -7 8 -8 14 -3 14 5 0
13 -5 16 -11z m44 -11 c-17 -34 -19 -34 -19 -5 0 18 5 27 15 27 13 0 14 -4 4
-22z m111 -54 c13 -40 8 -53 -15 -34 -16 13 -21 70 -6 70 5 0 15 -16 21 -36z
m2780 26 c0 -5 -2 -10 -4 -10 -3 0 -8 5 -11 10 -3 6 -1 10 4 10 6 0 11 -4 11
-10z m-3046 -15 c11 -8 15 -15 10 -15 -6 0 -19 7 -30 15 -10 8 -14 14 -9 14 6
0 19 -6 29 -14z m79 -10 c-3 -9 -8 -14 -10 -11 -3 3 -2 9 2 15 9 16 15 13 8
-4z m48 -32 c-9 -16 -10 -16 -11 -1 0 9 3 25 7 35 7 16 8 17 11 1 2 -10 -1
-25 -7 -35z m2158 23 c17 -20 2 -46 -25 -46 -29 0 -41 24 -24 45 16 19 34 19
49 1z m764 -28 c19 -47 11 -60 -33 -56 -19 2 -26 10 -28 31 -3 26 20 67 37 67
3 0 14 -19 24 -42z m-3236 -10 c-3 -8 -6 -5 -6 6 -1 11 2 17 5 13 3 -3 4 -12
1 -19z m-17 -8 c0 -5 -7 -10 -15 -10 -8 0 -15 5 -15 10 0 6 7 10 15 10 8 0 15
-4 15 -10z m60 -42 c0 -3 7 -14 16 -22 14 -15 13 -16 -14 -16 -16 0 -45 7 -63
16 -20 9 -24 13 -11 10 12 -2 22 0 22 5 0 5 -4 9 -10 9 -5 0 -10 5 -10 11 0 6
7 9 15 5 8 -3 15 -1 15 4 0 6 9 5 20 -2 11 -7 20 -16 20 -20z m208 5 c24 -46
23 -73 -3 -99 -25 -25 -25 -25 -56 -7 -17 10 -33 23 -36 30 -3 6 -11 9 -19 6
-21 -8 -17 5 12 41 40 47 86 60 102 29z m2102 2 c0 -19 9 -19 32 2 27 25 46 3
24 -28 -9 -13 -16 -18 -16 -11 0 7 -4 11 -10 7 -5 -3 -7 -12 -4 -19 3 -9 -4
-12 -25 -11 -17 1 -28 -2 -26 -5 3 -4 -2 -13 -10 -20 -11 -9 -20 -7 -44 11
-39 28 -38 39 2 66 38 25 77 29 77 8z m1932 -11 c-4 -20 -9 -24 -26 -20 -11 3
-25 6 -30 6 -12 0 37 39 50 40 7 0 9 -10 6 -26z m-3685 -5 c2 -16 -1 -19 -9
-11 -5 5 -7 15 -4 21 10 15 12 14 13 -10z m2827 15 c15 -6 15 -8 -1 -20 -17
-13 -17 -14 1 -7 13 4 17 3 12 -5 -12 -19 -46 -14 -46 6 0 16 8 32 16 32 1 0
10 -3 18 -6z m1055 -51 c1 -13 -3 -23 -7 -23 -4 0 -8 19 -9 43 -1 31 1 37 7
22 5 -11 9 -30 9 -42z m-293 16 c3 -5 -2 -9 -10 -9 -8 0 -18 5 -21 10 -4 6
-11 7 -17 4 -6 -4 -8 -2 -5 4 8 11 44 5 53 -9z m-3611 -19 c-3 -5 -11 -10 -16
-10 -6 0 -7 5 -4 10 3 6 11 10 16 10 6 0 7 -4 4 -10z m2110 -6 c15 -11 17 -17
7 -23 -10 -6 -10 -10 1 -19 11 -9 20 -5 42 18 32 33 45 38 45 15 0 -8 -11 -17
-25 -21 -15 -4 -24 -12 -23 -22 4 -20 -17 -26 -33 -9 -12 12 -17 11 -40 -5
-30 -23 -72 -21 -77 3 -3 19 50 79 70 79 7 0 22 -7 33 -16z m452 -105 c142
-112 335 -326 417 -464 l18 -30 -28 31 c-16 17 -78 88 -138 158 -108 125 -253
266 -275 266 -6 0 -11 7 -11 15 0 8 -3 15 -7 15 -5 1 -39 30 -78 66 -64 60
-66 63 -23 35 26 -17 82 -59 125 -92z m958 112 c-22 -20 -115 -62 -125 -56 -5
3 -10 2 -10 -3 0 -5 8 -12 18 -14 9 -3 31 -33 49 -67 17 -34 27 -59 22 -56 -5
4 -18 24 -29 45 -11 21 -31 47 -46 59 -20 16 -25 26 -20 46 5 21 12 25 44 25
21 0 47 7 58 15 21 16 55 21 39 6z m265 -11 c0 -5 -7 -7 -15 -4 -8 4 -12 10
-9 15 6 11 24 2 24 -11z m-850 -22 c0 -13 -23 -5 -28 10 -2 7 2 10 12 6 9 -3
16 -11 16 -16z m-3025 -6 c-3 -3 -11 0 -18 7 -9 10 -8 11 6 5 10 -3 15 -9 12
-12z m1905 14 c0 -11 -19 -15 -25 -6 -3 5 1 10 9 10 9 0 16 -2 16 -4z m-110
-24 c0 -5 -6 -17 -14 -28 -11 -15 -17 -16 -27 -7 -16 16 -4 43 21 43 11 0 20
-4 20 -8z m643 -19 c6 -32 3 -38 -12 -28 -13 8 -15 55 -2 55 5 0 11 -12 14
-27z m304 -9 c1 -18 -2 -23 -9 -16 -6 6 -8 18 -5 26 9 22 12 20 14 -10z m173
-18 c0 -6 -5 -3 -11 7 -6 9 -14 15 -20 12 -5 -3 -6 1 -2 11 6 16 7 15 20 -2 7
-10 13 -23 13 -28z m268 27 c-5 -25 -28 -28 -28 -4 0 12 6 21 16 21 9 0 14 -7
12 -17z m24 -15 c-7 -7 -12 -8 -12 -2 0 14 12 26 19 19 2 -3 -1 -11 -7 -17z
m601 10 c-4 -7 -6 -22 -4 -33 l3 -20 -16 20 c-17 22 -21 39 -7 30 5 -3 12 -1
16 5 3 5 8 10 11 10 3 0 2 -6 -3 -12z m17 -68 c-12 -23 -24 -39 -27 -36 -3 3
4 23 16 46 11 22 22 48 22 58 1 11 3 10 6 -5 2 -12 -5 -40 -17 -63z m-1940 50
c0 -5 -4 -10 -10 -10 -5 0 -10 5 -10 10 0 6 5 10 10 10 6 0 10 -4 10 -10z
m2207 -32 c-17 -11 -28 1 -14 16 8 10 14 11 19 3 4 -6 2 -15 -5 -19z m-3807 9
c0 -8 -11 -12 -27 -11 -35 2 -35 2 -28 14 9 15 55 12 55 -3z m3710 3 c0 -5
-17 -21 -37 -35 -21 -14 -48 -32 -61 -41 -12 -9 -25 -15 -27 -12 -6 5 106 98
118 98 4 0 7 -4 7 -10z m-3640 -34 c15 -20 9 -56 -12 -70 -13 -8 -22 -6 -37 8
-20 18 -21 18 -31 -8 -5 -15 -10 -31 -10 -36 0 -8 -30 -23 -37 -17 -10 10 11
66 27 70 9 2 23 18 31 36 15 34 48 42 69 17z m2233 -5 c3 -13 1 -18 -9 -14 -7
2 -10 11 -7 19 7 19 10 18 16 -5z m737 -31 c0 -11 -7 -20 -15 -20 -15 0 -21
21 -8 33 12 13 23 7 23 -13z m993 -44 c-3 -5 -10 -1 -15 7 -5 9 -15 14 -22 11
-8 -3 -17 -1 -21 5 -3 7 0 8 9 5 11 -4 13 0 9 18 -6 21 -4 20 19 -7 15 -16 24
-34 21 -39z m-4148 34 c0 -7 -5 -15 -12 -17 -7 -3 -11 4 -10 16 1 23 22 23 22
1z m2915 -15 c0 -14 -4 -25 -9 -25 -12 0 -23 29 -15 41 10 18 24 9 24 -16z
m-772 -2 c-2 -10 -10 -18 -18 -18 -8 0 -16 8 -18 18 -2 12 3 17 18 17 15 0 20
-5 18 -17z m1166 -8 c9 -13 16 -27 16 -31 0 -10 -30 17 -41 38 -15 27 6 22 25
-7z m-937 -17 c-3 -8 -6 -5 -6 6 -1 11 2 17 5 13 3 -3 4 -12 1 -19z m736 -60
c3 -21 1 -40 -4 -43 -5 -4 -9 4 -9 17 0 13 -3 41 -5 63 -7 51 9 17 18 -37z
m504 47 c-4 -8 -17 -15 -29 -14 -15 0 -18 3 -8 6 8 3 19 12 23 20 11 18 21 9
14 -12z m516 -10 c-3 -9 -8 -14 -10 -11 -3 3 -2 9 2 15 9 16 15 13 8 -4z
m-4074 -54 c-14 -4 -29 18 -29 44 0 17 4 15 20 -10 12 -19 16 -31 9 -34z m261
44 c0 -8 -4 -15 -9 -15 -13 0 -22 16 -14 24 11 11 23 6 23 -9z m-214 -41 c-3
-9 1 -11 12 -8 14 5 15 4 2 -5 -24 -17 -35 -13 -36 13 -1 18 2 23 13 19 8 -3
12 -12 9 -19z m244 -55 c0 -6 -4 -7 -10 -4 -5 3 -10 11 -10 16 0 6 5 7 10 4 6
-3 10 -11 10 -16z m2250 1 c0 -5 -2 -10 -4 -10 -3 0 -8 5 -11 10 -3 6 -1 10 4
10 6 0 11 -4 11 -10z m-739 -140 c5 0 9 8 9 17 0 18 28 53 43 53 5 0 4 -7 -3
-15 -7 -9 -10 -19 -6 -22 4 -4 11 -1 16 7 8 13 10 12 10 -2 0 -9 -7 -24 -16
-32 -20 -21 -25 -20 -17 2 5 16 5 16 -12 0 -17 -16 -16 -18 14 -57 46 -58 126
-127 205 -179 72 -47 212 -112 249 -116 12 -1 32 -8 44 -14 27 -15 36 -15 27
-1 -7 12 37 2 46 -10 9 -12 54 -10 69 2 11 9 15 9 18 -1 3 -6 9 -10 14 -6 5 3
9 1 9 -4 0 -18 25 -20 40 -4 13 14 12 15 -3 9 -9 -3 -17 -2 -17 3 0 11 23 13
33 4 12 -12 -14 -46 -30 -40 -9 4 -30 1 -48 -5 -27 -10 -39 -9 -68 4 -41 20
-88 22 -105 5 -12 -12 -134 -14 -153 -2 -6 3 -16 0 -24 -6 -12 -10 -15 -9 -15
3 0 9 9 19 20 22 11 3 20 11 20 16 0 5 12 9 28 9 20 0 7 9 -49 34 -100 43
-200 111 -269 180 -30 31 -62 56 -71 56 -22 0 -43 26 -35 45 3 10 -15 44 -49
90 -30 41 -55 77 -55 81 0 4 27 -23 61 -60 33 -36 65 -66 70 -66z m1284 83 c3
-13 2 -23 -3 -23 -11 0 -22 24 -22 48 0 21 15 5 25 -25z m275 16 c0 -6 -4 -7
-10 -4 -5 3 -10 11 -10 16 0 6 5 7 10 4 6 -3 10 -11 10 -16z m-1450 1 c0 -5
-7 -10 -16 -10 -8 0 -13 -4 -9 -9 3 -5 1 -12 -5 -16 -5 -3 -10 1 -10 9 0 8 8
20 18 25 22 13 22 13 22 1z m486 -34 c19 -19 34 -44 34 -56 0 -30 -18 -60 -36
-60 -14 0 -14 2 1 16 21 21 12 51 -26 87 -34 31 -42 33 -63 11 -14 -14 -16
-14 -16 0 0 17 27 35 54 36 10 0 33 -15 52 -34z m-1747 -13 c2 -2 -3 -3 -11
-3 -9 0 -19 7 -22 16 -6 15 -4 15 11 3 10 -7 20 -15 22 -16z m91 -24 c0 -6 -4
-7 -10 -4 -5 3 -10 11 -10 16 0 6 5 7 10 4 6 -3 10 -11 10 -16z m1638 -3 c6
-27 -11 -38 -33 -22 -11 8 -16 19 -12 30 9 22 41 17 45 -8z m-135 2 c6 -19 -3
-38 -18 -38 -18 0 -28 17 -21 35 7 18 33 20 39 3z m1737 -102 c0 -2 -7 -7 -16
-10 -8 -3 -12 -2 -9 4 6 10 25 14 25 6z m-771 -25 c9 -16 8 -18 -8 -14 -12 3
-17 11 -14 19 7 18 10 18 22 -5z m-2259 -1 c0 -5 -4 -10 -9 -10 -6 0 -13 5
-16 10 -3 6 1 10 9 10 9 0 16 -4 16 -10z m2406 -25 l29 5 -29 -11 c-25 -10
-31 -8 -50 12 l-21 23 21 -17 c15 -12 31 -16 50 -12z m-2098 -26 c-18 -11 -32
6 -24 28 7 17 8 17 22 -1 11 -16 11 -21 2 -27z m531 -4 c0 -5 -6 -1 -14 9 -8
11 -15 14 -15 8 0 -7 -5 -12 -10 -12 -7 0 -7 7 0 21 11 20 12 20 25 2 8 -10
14 -22 14 -28z m1646 26 c8 -14 -13 -24 -33 -16 -14 5 -14 7 -2 15 19 12 27
12 35 1z m235 -7 c0 -8 -5 -12 -10 -9 -6 4 -8 11 -5 16 9 14 15 11 15 -7z
m-1850 -1 c0 -5 -5 -15 -10 -23 -8 -12 -10 -11 -10 8 0 12 5 22 10 22 6 0 10
-3 10 -7z m-315 -63 c3 -5 1 -10 -4 -10 -6 0 -11 5 -11 10 0 6 2 10 4 10 3 0
8 -4 11 -10z m249 -31 c-16 -18 -16 -19 -1 -19 10 0 17 5 17 11 0 6 7 3 16 -5
8 -9 24 -16 35 -16 16 0 19 -4 13 -22 -3 -13 -9 -25 -11 -28 -7 -8 -33 32 -27
41 7 12 -7 11 -26 -1 -13 -8 -13 -10 1 -10 9 0 19 -7 23 -15 3 -9 0 -15 -10
-15 -8 0 -12 4 -9 10 3 5 0 7 -9 4 -20 -8 -35 23 -31 66 4 46 3 44 20 30 14
-12 14 -15 -1 -31z m1676 -100 c0 -6 -4 -7 -10 -4 -5 3 -10 11 -10 16 0 6 5 7
10 4 6 -3 10 -11 10 -16z m-530 -4 c9 -10 9 -15 1 -15 -6 0 -11 5 -11 12 0 9
-3 9 -11 1 -14 -14 -2 -56 13 -47 7 4 8 2 4 -4 -11 -18 -59 -15 -52 3 3 8 0
14 -7 12 -7 -1 -12 5 -12 13 0 9 7 14 19 12 14 -3 17 1 13 12 -8 21 26 22 43
1z m-870 -11 c0 -2 -9 -4 -20 -4 -11 0 -20 4 -20 9 0 5 9 7 20 4 11 -3 20 -7
20 -9z m-190 -1 c0 -5 21 -9 47 -11 26 -2 50 -8 54 -13 10 -17 100 -7 112 12
9 14 13 15 24 4 17 -17 17 -29 0 -22 -9 3 -19 -7 -27 -28 -18 -45 -74 -63 -93
-29 -4 8 -19 14 -32 14 -13 0 -27 5 -30 10 -3 6 -18 9 -33 9 -24 -2 -24 -2 -4
-6 13 -3 22 -11 21 -21 0 -11 -3 -12 -6 -4 -2 6 -13 12 -23 12 -23 0 -47 51
-34 72 6 10 24 11 24 1z m1244 1 c9 -4 16 -18 16 -34 0 -39 -51 -57 -64 -24
-5 14 -4 15 8 5 17 -14 46 -4 46 16 0 9 -8 22 -17 29 -19 14 -14 18 11 8z
m-384 -14 c0 -5 -5 -10 -11 -10 -5 0 -7 5 -4 10 3 6 8 10 11 10 2 0 4 -4 4
-10z m9 -31 c-19 -12 -29 -11 -29 2 0 5 5 7 10 4 6 -3 13 2 17 11 5 13 8 14
11 5 2 -7 -2 -17 -9 -22z m-72 -5 c-3 -4 -14 -3 -24 0 -15 6 -15 8 -3 16 16
10 39 -4 27 -16z m529 -31 c-10 -10 -19 5 -10 18 6 11 8 11 12 0 2 -7 1 -15
-2 -18z m-1510 8 c-3 -5 -15 -7 -26 -4 -22 6 -25 -4 -10 -27 6 -10 10 -11 10
-2 0 6 9 12 19 12 11 0 21 5 23 12 6 17 60 -18 74 -47 12 -26 0 -60 -18 -49
-7 5 -8 2 -3 -5 11 -19 -33 -45 -83 -48 l-43 -2 -26 56 -26 56 32 29 c28 25
90 41 77 19z m394 -90 c0 -17 5 -19 38 -14 41 7 45 7 82 4 24 -2 23 -2 -8 -16
-18 -8 -39 -12 -46 -9 -8 3 -31 -2 -52 -11 -37 -15 -39 -15 -56 7 -29 37 -21
55 25 57 10 1 17 -6 17 -18z m988 -26 c15 -33 15 -36 -2 -29 -14 5 -29 54 -16
54 4 0 12 -11 18 -25z m-1097 -8 c-7 -7 -14 -8 -21 -1 -6 6 -2 10 12 11 16 2
18 -1 9 -10z m-51 -7 c0 -5 -5 -10 -11 -10 -5 0 -7 5 -4 10 3 6 8 10 11 10 2
0 4 -4 4 -10z m116 -16 c7 -28 -8 -50 -25 -40 -6 4 -11 14 -11 22 0 10 -5 12
-12 8 -10 -6 -10 -5 -1 8 7 8 11 17 8 19 -2 3 5 5 15 6 14 1 22 -6 26 -23z
m1102 -22 c2 -7 -3 -12 -12 -12 -9 0 -16 7 -16 16 0 17 22 14 28 -4z m-1088
-43 c0 -4 9 -10 19 -14 12 -4 18 -12 14 -21 -3 -8 0 -21 7 -29 10 -12 15 -12
36 2 21 13 24 13 24 0 0 -41 -72 -50 -78 -9 -2 12 -11 22 -20 23 -11 0 -12 3
-4 6 6 2 12 9 12 15 0 6 -6 8 -14 5 -8 -3 -16 2 -19 12 -2 11 1 18 9 18 8 0
14 -4 14 -8z m180 -19 c0 -5 -5 -10 -11 -10 -5 0 -7 5 -4 10 3 6 8 10 11 10 2
0 4 -4 4 -10z m-50 -75 c-7 -8 -16 -12 -21 -9 -13 8 -1 24 18 24 13 0 13 -3 3
-15z m426 -10 c-22 -17 -72 -20 -81 -6 -3 6 14 12 37 14 24 2 48 4 53 5 6 1 1
-5 -9 -13z"/>
<path d="M3472 4741 c-11 -7 -11 -9 2 -14 10 -4 16 -1 16 8 0 17 -1 17 -18 6z"/>
<path d="M4885 4210 c3 -5 8 -10 11 -10 2 0 4 5 4 10 0 6 -5 10 -11 10 -5 0
-7 -4 -4 -10z"/>
<path d="M5364 4090 c2 -16 -3 -39 -12 -51 -14 -20 -14 -21 8 -9 16 9 21 18
17 36 -2 13 0 24 4 24 15 0 10 17 -6 24 -11 4 -14 -2 -11 -24z"/>
<path d="M5415 4070 c-3 -5 -1 -10 4 -10 6 0 11 5 11 10 0 6 -2 10 -4 10 -3 0
-8 -4 -11 -10z"/>
<path d="M5445 4000 c-3 -5 -1 -10 4 -10 6 0 11 5 11 10 0 6 -2 10 -4 10 -3 0
-8 -4 -11 -10z"/>
<path d="M3010 5181 c0 -20 32 -37 50 -26 5 3 10 12 10 20 0 7 10 16 23 18 12
2 -2 5 -30 6 -46 1 -53 -2 -53 -18z"/>
<path d="M3155 5185 c32 -15 104 -18 145 -6 20 6 15 9 -30 14 -30 4 -75 6
-100 6 l-45 -1 30 -13z"/>
<path d="M730 5161 c0 -5 7 -12 16 -15 14 -5 15 -4 4 9 -14 17 -20 19 -20 6z"/>
<path d="M2040 5135 c-13 -14 -20 -28 -17 -32 8 -7 57 35 57 49 0 15 -16 8
-40 -17z"/>
<path d="M860 5076 c0 -2 8 -10 18 -17 15 -13 16 -12 3 4 -13 16 -21 21 -21
13z"/>
<path d="M940 5071 c-8 -6 -17 -8 -21 -5 -4 2 -10 0 -14 -5 -7 -13 35 -5 49 9
12 12 6 13 -14 1z"/>
<path d="M1818 5073 c7 -3 16 -2 19 1 4 3 -2 6 -13 5 -11 0 -14 -3 -6 -6z"/>
<path d="M20 5061 c0 -5 5 -13 10 -16 6 -3 10 -2 10 4 0 5 -4 13 -10 16 -5 3
-10 2 -10 -4z"/>
<path d="M726 5055 c-3 -8 -1 -15 3 -15 5 0 11 7 15 15 3 8 1 15 -3 15 -5 0
-11 -7 -15 -15z"/>
<path d="M330 5049 c0 -5 5 -7 10 -4 6 3 10 8 10 11 0 2 -4 4 -10 4 -5 0 -10
-5 -10 -11z"/>
<path d="M2431 5044 c0 -11 3 -14 6 -6 3 7 2 16 -1 19 -3 4 -6 -2 -5 -13z"/>
<path d="M165 5030 c-3 -6 1 -7 9 -4 18 7 21 14 7 14 -6 0 -13 -4 -16 -10z"/>
<path d="M310 5011 c0 -11 4 -22 9 -25 4 -3 6 6 3 19 -5 30 -12 33 -12 6z"/>
<path d="M677 5013 c-36 -6 -82 -49 -60 -57 21 -9 23 -8 23 12 0 13 15 22 53
34 50 16 44 20 -16 11z"/>
<path d="M4396 4953 c-3 -8 -11 -11 -17 -7 -7 4 -10 1 -7 -7 5 -14 39 -14 48
1 3 4 12 9 20 12 9 3 5 7 -12 10 -18 3 -29 0 -32 -9z"/>
<path d="M1320 4920 c0 -5 15 -10 33 -10 24 0 28 3 17 10 -20 13 -50 13 -50 0z"/>
<path d="M1405 4920 c-3 -5 1 -10 10 -10 9 0 13 5 10 10 -3 6 -8 10 -10 10 -2
0 -7 -4 -10 -10z"/>
<path d="M1038 4903 c7 -3 16 -2 19 1 4 3 -2 6 -13 5 -11 0 -14 -3 -6 -6z"/>
<path d="M4640 4894 c0 -18 47 -45 70 -41 14 3 32 -1 42 -10 9 -8 23 -13 30
-11 7 3 -15 19 -49 36 -59 30 -93 40 -93 26z"/>
<path d="M1627 4873 c-4 -3 -7 -13 -7 -21 0 -12 3 -12 15 -2 8 7 15 16 15 21
0 11 -14 12 -23 2z"/>
<path d="M1253 4837 l-23 -13 20 -36 c11 -21 17 -44 14 -52 -3 -7 7 -26 22
-41 26 -27 27 -27 78 -13 39 11 51 19 51 34 0 13 -8 20 -25 22 -37 5 -51 28
-37 59 9 21 8 27 -8 39 -23 17 -62 17 -92 1z"/>
<path d="M5849 4743 c-13 -16 -12 -17 4 -4 16 13 21 21 13 21 -2 0 -10 -8 -17
-17z"/>
<path d="M1549 4708 c-13 -23 -10 -28 115 -192 50 -65 106 -140 125 -165 l35
-46 7 28 c4 15 4 41 -1 57 -7 23 -5 30 6 30 11 0 14 -17 14 -75 l0 -74 67 -83
c94 -118 113 -137 130 -131 9 4 13 0 11 -10 -3 -18 52 -79 148 -163 l65 -57
36 17 c45 21 56 13 13 -9 l-32 -17 33 -28 c19 -16 40 -29 46 -30 7 0 28 -17
47 -37 19 -21 38 -34 42 -30 5 4 2 12 -6 18 -11 7 -9 8 10 5 14 -3 25 -5 25
-6 0 -1 15 -3 33 -4 25 -3 35 1 43 18 7 11 23 33 36 47 14 15 21 29 16 32 -11
7 -113 -39 -113 -50 0 -4 -13 -8 -29 -8 -25 0 -28 3 -20 18 5 9 17 17 25 17 8
0 12 -4 9 -10 -3 -5 -2 -10 4 -10 15 0 23 18 9 22 -24 8 57 88 89 88 12 0 -30
-40 -48 -45 -11 -4 -19 -11 -19 -16 0 -5 17 -2 38 7 20 9 49 20 65 24 24 8 27
6 27 -16 0 -27 24 -33 34 -8 3 9 9 46 12 84 l7 69 -34 3 c-29 3 -34 7 -37 33
-2 16 -10 38 -18 49 -8 11 -14 38 -14 59 0 32 -6 45 -37 73 -20 18 -39 32 -42
29 -23 -13 -289 -75 -307 -71 -17 5 -31 -4 -63 -40 -22 -25 -46 -44 -53 -41
-8 4 -7 6 5 6 9 1 17 8 17 16 0 8 3 15 8 15 4 0 13 9 20 20 10 17 10 23 -3 36
-8 9 -15 21 -15 27 1 7 10 1 21 -12 19 -23 21 -24 37 -6 16 17 16 17 0 12 -23
-8 -22 2 3 33 18 23 19 23 9 3 -15 -31 -2 -29 26 5 25 28 31 24 14 -8 -14 -27
10 -32 76 -14 32 8 65 12 73 9 8 -3 12 -3 8 1 -4 5 16 14 44 21 29 7 54 11 56
9 2 -2 15 6 29 19 15 14 32 21 44 18 14 -4 22 1 29 18 5 13 7 29 4 34 -2 6 2
2 10 -7 11 -14 16 -15 27 -5 9 9 9 6 -1 -11 -12 -19 -12 -24 1 -32 22 -14 53
-12 76 4 18 14 16 17 -46 78 -40 39 -110 91 -180 132 -63 38 -148 91 -188 117
-40 27 -74 49 -77 49 -2 0 -15 11 -29 24 -24 22 -36 23 -196 30 -104 4 -176 3
-187 -2 -12 -7 -20 -6 -28 3 -6 8 -47 15 -118 18 -99 4 -108 3 -118 -15z m56
2 c8 -13 -5 -13 -25 0 -13 8 -13 10 2 10 9 0 20 -4 23 -10z m405 -43 c0 -7 -4
-6 -10 3 -14 21 -13 -5 1 -31 10 -19 12 -19 35 -4 18 12 32 13 57 7 l32 -9
-32 -7 c-18 -4 -36 -7 -39 -6 -4 1 -11 -4 -15 -12 -7 -11 -12 -11 -31 1 -20
12 -22 12 -13 0 6 -8 12 -27 13 -44 1 -16 -1 -23 -5 -15 -6 16 -23 30 -36 30
-5 0 -5 -5 -1 -12 4 -7 3 -8 -4 -4 -7 4 -12 16 -12 27 0 11 -7 22 -15 25 -8 4
-15 11 -15 17 0 5 8 3 18 -6 27 -24 40 -21 34 8 -2 14 1 32 8 40 13 16 30 11
30 -8z m-386 -18 c-3 -5 -10 -7 -15 -3 -5 3 -7 10 -3 15 3 5 10 7 15 3 5 -3 7
-10 3 -15z m36 1 c0 -5 -2 -10 -4 -10 -3 0 -8 5 -11 10 -3 6 -1 10 4 10 6 0
11 -4 11 -10z m232 -37 c10 -9 18 -22 18 -30 0 -9 -5 -8 -18 5 -11 9 -17 21
-14 26 3 5 -2 6 -12 3 -10 -4 -15 -3 -11 3 9 14 16 13 37 -7z m18 -67 c0 -3
-5 -17 -10 -32 -8 -19 -14 -24 -21 -17 -8 8 -7 17 0 32 10 18 31 30 31 17z
m140 -31 c0 -15 5 -23 13 -20 30 10 117 14 117 5 0 -6 -6 -10 -12 -10 -9 0 -8
-4 2 -10 8 -5 11 -10 7 -10 -4 0 -2 -6 5 -14 9 -10 15 -11 20 -3 4 6 2 15 -5
19 -6 4 -8 10 -4 14 4 4 12 3 18 -3 8 -8 7 -19 -3 -40 -11 -23 -19 -28 -48
-26 -46 3 -167 42 -181 59 -8 10 -8 14 0 14 6 0 11 -5 11 -11 0 -13 34 20 36
35 0 6 2 17 2 24 3 23 22 2 22 -23z m-43 0 c0 -8 -4 -15 -9 -15 -10 0 -11 14
-1 23 9 10 10 9 10 -8z m-159 -64 c-7 -11 -16 -17 -22 -14 -5 3 -1 12 9 20 25
18 27 17 13 -6z m122 4 c11 -13 7 -15 -26 -15 -39 0 -39 0 -14 14 14 8 26 14
26 15 1 1 7 -6 14 -14z m-163 -61 c-3 -3 -12 -4 -19 -1 -8 3 -5 6 6 6 11 1 17
-2 13 -5z m410 -106 c-3 -8 -6 -5 -6 6 -1 11 2 17 5 13 3 -3 4 -12 1 -19z
m243 -18 c-8 -5 -28 -9 -45 -9 -30 2 -30 2 5 9 51 11 57 11 40 0z m-113 -26
c-3 -3 -12 -4 -19 -1 -8 3 -5 6 6 6 11 1 17 -2 13 -5z m209 -93 c-8 -13 -36
-15 -36 -3 0 4 5 13 12 20 14 14 34 0 24 -17z m45 -203 c11 -21 11 -22 -4 -9
-10 7 -17 17 -17 22 0 15 9 10 21 -13z m-81 -12 c0 -2 -7 -9 -15 -16 -12 -10
-15 -10 -15 4 0 9 7 16 15 16 8 0 15 -2 15 -4z m-54 -28 c4 -7 4 -10 -1 -6 -4
4 -14 3 -22 -3 -8 -8 -13 -8 -13 -1 0 6 6 13 13 15 6 3 13 6 14 6 1 1 5 -5 9
-11z"/>
<path d="M2030 4469 c0 -5 5 -7 10 -4 6 3 10 8 10 11 0 2 -4 4 -10 4 -5 0 -10
-5 -10 -11z"/>
<path d="M6225 4589 c-11 -17 1 -21 15 -4 8 9 8 15 2 15 -6 0 -14 -5 -17 -11z"/>
<path d="M5934 4502 c4 -3 14 -7 22 -8 9 -1 13 0 10 4 -4 3 -14 7 -22 8 -9 1
-13 0 -10 -4z"/>
<path d="M3527 4444 c-11 -11 3 -24 24 -24 12 0 19 5 17 13 -5 14 -31 21 -41
11z"/>
<path d="M6125 4270 c-3 -5 -2 -10 4 -10 5 0 13 5 16 10 3 6 2 10 -4 10 -5 0
-13 -4 -16 -10z"/>
<path d="M5986 4257 c3 -10 9 -15 12 -12 3 3 0 11 -7 18 -10 9 -11 8 -5 -6z"/>
<path d="M9455 4260 c-3 -5 -2 -10 4 -10 5 0 13 5 16 10 3 6 2 10 -4 10 -5 0
-13 -4 -16 -10z"/>
<path d="M2555 4250 c3 -5 8 -10 11 -10 2 0 4 5 4 10 0 6 -5 10 -11 10 -5 0
-7 -4 -4 -10z"/>
<path d="M2460 4220 c-12 -8 -11 -10 8 -10 12 0 22 5 22 10 0 13 -11 13 -30 0z"/>
<path d="M6075 4210 c-3 -6 1 -7 9 -4 18 7 21 14 7 14 -6 0 -13 -4 -16 -10z"/>
<path d="M6227 4213 c-9 -9 -9 -41 1 -46 4 -3 7 8 7 24 0 16 0 29 -1 29 0 0
-4 -3 -7 -7z"/>
<path d="M3395 4201 c-8 -15 6 -19 58 -19 56 1 62 13 10 22 -51 8 -61 8 -68
-3z"/>
<path d="M9840 4196 c0 -9 5 -16 10 -16 6 0 10 4 10 9 0 6 -4 13 -10 16 -5 3
-10 -1 -10 -9z"/>
<path d="M3324 4166 c-7 -41 0 -56 27 -56 14 0 19 7 19 28 -1 25 -20 62 -33
62 -3 0 -9 -15 -13 -34z"/>
<path d="M9485 4140 c-4 -7 -3 -16 3 -22 14 -14 45 -2 40 15 -6 16 -34 21 -43
7z"/>
<path d="M9383 4073 c-23 -9 -15 -53 11 -65 50 -22 87 21 47 54 -23 18 -36 21
-58 11z"/>
<path d="M9220 4056 c-15 -19 -5 -36 21 -36 22 0 25 22 5 39 -10 9 -16 8 -26
-3z"/>
<path d="M9135 3945 c-16 -15 -25 -36 -25 -55 0 -16 -1 -33 -2 -37 -1 -5 17
-19 40 -32 24 -13 41 -25 38 -28 -2 -3 -22 4 -43 15 -66 36 -183 63 -295 69
-106 6 -109 5 -173 -26 -89 -44 -261 -181 -227 -181 6 0 14 5 17 11 9 14 64 2
97 -22 16 -11 29 -15 33 -9 12 20 27 10 21 -14 -4 -17 -1 -26 10 -30 14 -5 15
-4 4 9 -8 10 -9 15 -1 15 6 0 10 6 9 13 -3 13 5 13 35 2 9 -4 17 -3 17 3 0 6
8 9 18 7 33 -6 45 11 48 67 3 47 0 56 -26 85 -32 34 -36 43 -21 43 5 0 13 -9
16 -20 9 -29 52 -37 70 -14 16 23 25 16 29 -22 2 -16 4 -32 5 -35 1 -8 69 -5
77 4 4 4 18 -3 30 -14 21 -20 24 -20 30 -6 3 9 10 14 15 11 5 -3 9 1 9 9 0 8
7 17 14 20 10 4 13 1 9 -9 -3 -7 0 -14 5 -14 6 0 14 -9 17 -21 6 -19 8 -19 32
-4 30 20 63 27 63 14 0 -5 12 -14 26 -19 19 -8 24 -15 19 -27 -5 -13 0 -12 18
5 l24 22 -1 -22 c-1 -15 6 -24 24 -28 14 -4 24 -12 22 -19 -1 -6 4 -14 12 -17
8 -3 12 -12 9 -20 -3 -8 1 -14 11 -14 9 0 16 -4 16 -9 0 -16 63 -19 97 -5 18
8 59 14 92 14 53 0 60 2 54 18 -6 14 -4 15 8 5 11 -9 22 -4 52 23 22 21 35 40
30 47 -4 6 -7 26 -8 45 0 27 2 32 17 28 58 -19 58 -19 58 2 0 36 -82 74 -187
87 -79 11 -102 18 -172 59 -69 40 -88 46 -136 46 -46 0 -60 -4 -80 -25z m-269
-152 c-8 -8 -12 -3 -21 27 l-7 25 17 -23 c9 -13 14 -26 11 -29z m257 -2 c3
-14 1 -18 -9 -14 -15 6 -18 16 -7 26 9 10 10 9 16 -12z m427 0 c0 -5 -7 -11
-15 -15 -15 -5 -20 5 -8 17 9 10 23 9 23 -2z m-280 -28 c33 -4 61 -25 59 -47
0 -6 -7 -1 -16 12 -11 16 -25 22 -53 22 -25 0 -40 5 -44 16 -4 10 -2 13 6 8 7
-4 28 -9 48 -11z m106 -58 c-9 -9 -14 -21 -11 -26 4 -5 -1 -6 -9 -3 -21 8 -20
12 7 34 26 22 36 18 13 -5z m-3 -64 c3 8 6 9 6 3 1 -6 -6 -17 -14 -24 -13 -10
-15 -9 -15 11 0 17 3 20 9 10 7 -11 9 -11 14 0z"/>
<path d="M9495 3940 c4 -6 11 -8 16 -5 14 9 11 15 -7 15 -8 0 -12 -5 -9 -10z"/>
<path d="M7295 3893 c-139 -31 -345 -133 -479 -237 l-40 -31 38 -6 c50 -8 117
16 109 39 -4 10 -2 13 5 8 7 -4 12 -2 12 3 0 6 15 11 34 11 30 0 34 3 30 23
-2 12 -2 16 2 10 9 -20 39 -15 60 8 28 31 83 52 100 38 8 -6 25 -9 39 -7 14 3
25 1 25 -4 0 -5 6 -16 14 -23 16 -16 36 -1 36 27 0 22 18 23 42 2 15 -14 20
-15 33 -4 27 22 45 67 45 110 l0 40 -42 -1 c-24 -1 -52 -3 -63 -6z"/>
<path d="M5537 3860 c3 -11 7 -20 9 -20 2 0 4 9 4 20 0 11 -4 20 -9 20 -5 0
-7 -9 -4 -20z"/>
<path d="M7608 3863 c7 -3 16 -2 19 1 4 3 -2 6 -13 5 -11 0 -14 -3 -6 -6z"/>
<path d="M5340 3831 c0 -5 7 -15 17 -22 15 -13 15 -12 4 9 -12 23 -21 28 -21
13z"/>
<path d="M7760 3819 c0 -5 5 -7 10 -4 6 3 10 8 10 11 0 2 -4 4 -10 4 -5 0 -10
-5 -10 -11z"/>
<path d="M5290 3806 c0 -2 8 -10 18 -17 15 -13 16 -12 3 4 -13 16 -21 21 -21
13z"/>
<path d="M7761 3789 c-16 -13 -26 -33 -28 -58 -3 -31 0 -39 21 -51 23 -12 28
-10 61 19 20 17 46 31 58 31 12 0 34 8 49 18 l28 18 -68 22 c-83 27 -91 27
-121 1z m49 1 c-8 -5 -19 -10 -25 -10 -5 0 -3 5 5 10 8 5 20 10 25 10 6 0 3
-5 -5 -10z"/>
<path d="M7677 3774 c3 -7 9 -14 14 -14 14 0 10 17 -5 23 -10 4 -13 1 -9 -9z"/>
<path d="M5345 3750 c10 -11 20 -20 23 -20 3 0 -3 9 -13 20 -10 11 -20 20 -23
20 -3 0 3 -9 13 -20z"/>
<path d="M9895 3760 c3 -5 8 -10 11 -10 2 0 4 5 4 10 0 6 -5 10 -11 10 -5 0
-7 -4 -4 -10z"/>
<path d="M5520 3750 c0 -13 11 -13 30 0 12 8 11 10 -7 10 -13 0 -23 -4 -23
-10z"/>
<path d="M8030 3745 c-14 -16 -6 -35 16 -35 17 0 17 -4 2 -55 -6 -22 -12 -42
-13 -45 0 -3 -4 -11 -8 -17 -5 -7 -6 -17 -3 -21 2 -4 1 -14 -4 -22 -7 -11 -11
-8 -19 13 -6 15 -17 27 -25 27 -22 0 -27 -29 -11 -60 19 -37 19 -41 -1 -33
-22 8 -34 -15 -23 -46 10 -27 -12 -101 -29 -101 -18 1 -35 20 -41 50 -9 44
-37 62 -56 36 -8 -10 -12 -23 -9 -27 3 -5 -2 -9 -10 -9 -10 0 -13 6 -10 15 4
8 2 15 -4 15 -6 0 -13 -6 -15 -12 -3 -7 -10 2 -17 20 -7 17 -16 32 -22 32 -5
0 -7 4 -4 9 3 5 -1 12 -9 15 -8 3 -14 9 -13 13 2 4 0 8 -4 8 -17 0 -56 48 -50
64 5 14 3 14 -11 3 -9 -8 -22 -12 -29 -9 -8 3 -6 6 6 6 12 1 16 6 12 17 -3 9
-6 22 -6 30 0 8 -11 19 -24 25 -14 7 -27 21 -30 33 -10 39 -65 66 -136 66 -35
0 -61 -3 -57 -6 3 -3 -3 -14 -14 -25 -10 -10 -19 -26 -19 -34 0 -9 -9 -15 -22
-15 l-22 0 24 -17 c13 -9 31 -17 40 -18 10 -1 43 -29 75 -63 31 -34 64 -62 72
-62 8 0 11 -4 8 -10 -3 -5 7 -29 23 -53 17 -23 37 -59 45 -80 9 -20 21 -37 27
-37 6 0 9 -4 6 -9 -3 -4 2 -46 11 -92 20 -105 8 -194 -39 -281 -74 -139 -323
-356 -541 -471 l-49 -25 55 -7 c54 -7 261 -1 327 9 19 3 42 6 50 6 95 -3 160
6 160 20 0 5 8 7 18 4 11 -4 7 4 -11 20 -16 15 -26 32 -24 39 4 9 6 9 6 0 2
-22 16 -14 35 19 11 18 20 55 22 86 2 53 4 56 71 121 37 36 83 77 100 89 55
39 77 167 44 256 -28 76 -28 87 6 145 2 2 12 -8 24 -22 28 -37 65 -35 114 5
28 23 37 27 32 14 -5 -14 -4 -17 8 -12 26 9 17 -23 -17 -66 -29 -37 -33 -39
-44 -23 -23 31 -33 8 -18 -42 8 -26 12 -53 10 -59 -3 -7 2 -20 9 -31 24 -30
18 -67 -17 -102 l-32 -33 24 -44 c19 -38 28 -45 49 -42 19 2 31 14 44 40 26
52 96 98 151 98 23 0 47 5 54 12 7 7 12 8 12 2 0 -6 -3 -14 -7 -17 -3 -4 -8
-21 -10 -38 -2 -25 0 -30 12 -25 9 3 13 2 10 -3 -12 -21 36 -21 75 -1 39 20
41 23 35 53 -4 18 -13 37 -21 43 -8 6 -14 16 -14 21 0 5 -9 18 -20 28 -11 10
-20 24 -20 31 0 7 -6 15 -12 17 -9 4 -9 6 -1 6 6 1 24 14 40 29 15 16 34 31
42 33 16 6 -16 68 -54 103 -26 24 -35 54 -12 39 6 -4 21 -6 31 -4 22 3 51 29
43 38 -3 3 -13 -2 -22 -11 -23 -22 -41 -20 -49 7 -7 21 -7 21 -16 2 -7 -16 -9
-17 -9 -3 -1 9 4 20 9 23 6 3 10 11 10 17 0 7 -6 6 -15 -2 -8 -7 -15 -28 -15
-46 0 -37 -2 -39 -31 -24 -20 11 -27 40 -9 40 13 0 50 37 50 49 0 6 -12 4 -27
-4 -34 -18 -38 -14 -25 25 7 18 7 28 2 25 -6 -4 -10 -13 -10 -21 0 -8 -5 -14
-11 -14 -6 0 -8 -7 -5 -16 5 -14 4 -15 -9 -4 -13 11 -13 15 -2 29 26 30 29 41
12 41 -9 0 -14 -4 -10 -9 3 -5 1 -12 -5 -16 -5 -3 -10 2 -10 12 0 13 -5 10
-20 -12 -11 -16 -20 -25 -20 -18 0 6 4 14 9 17 5 3 11 14 14 25 3 14 0 17 -14
14 -11 -3 -19 0 -19 7 0 9 -11 10 -37 6 l-38 -7 25 20 c28 23 14 29 -16 6 -29
-22 -52 -19 -28 4 10 10 22 17 26 15 3 -2 8 2 11 8 3 10 9 10 28 0 13 -7 38
-14 54 -16 17 -2 29 -8 28 -13 -1 -5 6 -9 15 -10 9 -1 27 -4 39 -8 17 -6 22
-2 25 17 2 12 9 22 15 21 7 -2 10 4 7 12 -4 8 3 33 14 54 15 29 18 41 9 45 -7
4 2 4 20 2 20 -3 36 0 43 9 15 18 33 20 27 3 -2 -7 -10 -12 -16 -10 -6 1 -11
-3 -11 -9 0 -8 13 -10 38 -6 21 4 31 3 24 -2 -11 -7 -11 -11 2 -24 16 -16 22
-42 8 -33 -4 2 -14 1 -21 -4 -23 -14 -5 -79 25 -91 22 -8 25 -13 19 -39 -8
-36 10 -41 19 -5 4 14 11 25 17 25 9 0 7 -16 -8 -56 -2 -7 0 -15 6 -19 6 -3
11 -20 11 -36 0 -41 14 -63 54 -88 42 -26 76 -28 76 -3 0 13 -2 14 -9 4 -10
-17 -17 -16 -63 11 -37 20 -57 52 -43 65 4 4 10 1 12 -5 7 -20 23 -15 23 7 0
13 -7 20 -20 20 -16 0 -20 7 -20 35 0 39 9 43 45 19 18 -12 25 -13 25 -4 0 10
3 10 15 0 24 -20 57 14 48 49 -13 56 -140 200 -163 186 -6 -3 -9 -1 -8 6 2 7
-6 14 -17 16 -63 11 -67 13 -54 29 7 9 8 18 3 24 -19 18 -131 69 -174 79 -70
16 -195 14 -210 -4z m484 -181 c3 -9 6 -22 6 -30 0 -12 -3 -12 -20 -2 -11 7
-18 18 -16 25 3 6 0 14 -7 17 -7 2 -2 5 9 5 12 1 25 -6 28 -15z m-458 -14 c0
-20 -7 -25 -19 -13 -4 3 -2 12 4 20 15 17 15 17 15 -7z m185 -8 c0 -14 2 -13
9 3 6 13 9 15 9 5 0 -8 -4 -22 -9 -30 -7 -10 -10 -11 -10 -2 0 8 -9 10 -27 6
-16 -3 -23 -2 -17 3 6 4 13 16 17 26 8 21 27 14 28 -11z m-676 8 c-3 -5 -11
-10 -16 -10 -6 0 -7 5 -4 10 3 6 11 10 16 10 6 0 7 -4 4 -10z m985 -39 c0 -12
-20 -25 -27 -18 -7 7 6 27 18 27 5 0 9 -4 9 -9z m-950 -102 c0 -10 -4 -19 -9
-19 -5 0 -8 11 -8 25 0 13 3 22 8 19 5 -3 9 -14 9 -25z m255 2 c10 -17 -12
-21 -25 -6 -10 12 -10 15 3 15 9 0 18 -4 22 -9z m2 -53 c-3 -8 -6 -5 -6 6 -1
11 2 17 5 13 3 -3 4 -12 1 -19z m327 -23 c2 -7 -2 -21 -9 -32 -11 -15 -16 -16
-27 -5 -7 7 -13 23 -13 36 -1 18 4 22 21 18 13 -2 25 -10 28 -17z m-464 -6 c0
-5 -9 -9 -20 -9 -22 0 -27 16 -7 23 15 5 27 -1 27 -14z m-63 -23 c-4 -9 -14
-16 -24 -16 -15 0 -15 1 2 13 11 9 15 19 10 28 -6 11 -5 11 5 2 7 -6 10 -19 7
-27z m553 -66 c0 -5 -4 -10 -9 -10 -6 0 -13 5 -16 10 -3 6 1 10 9 10 9 0 16
-4 16 -10z m35 -60 c3 -6 -1 -7 -9 -4 -18 7 -21 14 -7 14 6 0 13 -4 16 -10z
m-35 -65 c0 -8 -4 -15 -10 -15 -5 0 -10 7 -10 15 0 8 5 15 10 15 6 0 10 -7 10
-15z m-435 -5 c-3 -5 -12 -10 -18 -10 -7 0 -6 4 3 10 19 12 23 12 15 0z m489
-55 c-4 -8 -8 -15 -10 -15 -2 0 -4 7 -4 15 0 8 4 15 10 15 5 0 7 -7 4 -15z m9
-62 c-9 -23 -20 -14 -15 13 3 17 7 22 12 13 5 -7 6 -18 3 -26z m-533 -113 c0
-5 -2 -10 -4 -10 -3 0 -8 5 -11 10 -3 6 -1 10 4 10 6 0 11 -4 11 -10z m-220
-249 c0 -11 -67 -57 -103 -70 -39 -15 -77 -14 -77 2 0 16 25 30 100 57 61 21
80 24 80 11z m-50 -151 c-8 -5 -19 -10 -25 -10 -5 0 -3 5 5 10 8 5 20 10 25
10 6 0 3 -5 -5 -10z"/>
<path d="M7980 3740 c-20 -12 -5 -24 16 -12 9 5 12 12 7 15 -5 3 -15 2 -23 -3z"/>
<path d="M7074 3718 c-9 -14 -2 -16 26 -8 25 6 25 6 3 12 -13 3 -26 2 -29 -4z"/>
<path d="M9710 3710 c-14 -11 -30 -20 -37 -20 -6 0 -19 -10 -27 -21 -8 -12
-29 -30 -48 -42 -20 -12 -28 -22 -20 -25 20 -6 83 8 77 18 -3 5 0 12 6 15 5 4
8 13 5 21 -3 7 0 11 7 8 7 -2 28 11 47 31 37 38 31 47 -10 15z"/>
<path d="M7637 3713 c-13 -13 -7 -32 8 -27 8 4 15 12 15 20 0 15 -12 19 -23 7z"/>
<path d="M9000 3705 c0 -5 5 -17 10 -25 5 -8 10 -10 10 -5 0 6 -5 17 -10 25
-5 8 -10 11 -10 5z"/>
<path d="M9070 3700 c0 -5 5 -10 10 -10 6 0 10 5 10 10 0 6 -4 10 -10 10 -5 0
-10 -4 -10 -10z"/>
<path d="M5493 3675 c28 -25 47 -32 47 -17 0 4 -17 15 -37 25 l-38 16 28 -24z"/>
<path d="M9766 3685 c-3 -9 -6 -28 -6 -42 0 -19 4 -24 21 -21 30 4 47 33 33
56 -15 23 -40 27 -48 7z"/>
<path d="M7677 3652 c-24 -26 -22 -62 3 -62 11 0 20 4 20 9 0 5 9 13 21 16 14
5 19 14 17 28 -4 29 -39 34 -61 9z"/>
<path d="M8510 3650 c-9 -18 -2 -28 14 -17 2 1 13 -9 25 -23 l22 -25 -3 25
c-2 14 -9 24 -16 23 -6 -2 -12 3 -12 11 0 24 -18 28 -30 6z"/>
<path d="M8985 3641 c6 -38 12 -48 22 -38 3 4 -1 22 -11 40 l-17 32 6 -34z"/>
<path d="M9140 3650 c-6 -11 -7 -20 -2 -20 6 0 12 9 15 20 3 11 3 20 1 20 -2
0 -8 -9 -14 -20z"/>
<path d="M7765 3650 c-3 -5 -1 -10 4 -10 6 0 11 5 11 10 0 6 -2 10 -4 10 -3 0
-8 -4 -11 -10z"/>
<path d="M2506 3638 c3 -5 10 -6 15 -3 13 9 11 12 -6 12 -8 0 -12 -4 -9 -9z"/>
<path d="M8847 3617 c-17 -14 -27 -33 -27 -50 0 -15 -4 -27 -10 -27 -5 0 -10
-9 -10 -19 0 -11 -4 -23 -10 -26 -13 -8 -13 -25 -1 -25 5 0 15 14 23 30 7 17
16 30 19 30 4 0 10 12 14 27 3 15 15 39 26 55 25 34 12 36 -24 5z"/>
<path d="M8684 3602 c5 -14 -1 -26 -23 -44 l-29 -25 29 -43 c16 -24 31 -45 32
-46 1 -2 13 6 27 16 24 19 24 19 3 13 -19 -4 -23 -1 -23 18 0 13 11 32 26 44
l26 20 -37 34 c-29 26 -36 29 -31 13z"/>
<path d="M9922 3598 c5 -13 58 -31 58 -19 0 13 -24 31 -43 31 -10 0 -17 -5
-15 -12z"/>
<path d="M9092 3592 c-15 -2 -22 -9 -18 -17 3 -8 -4 -24 -15 -37 l-20 -23 6
22 c9 33 -33 58 -69 42 -30 -14 -31 -18 -12 -64 20 -46 54 -47 97 -2 35 35 64
76 58 80 -2 2 -14 1 -27 -1z"/>
<path d="M8845 3470 c-3 -5 -1 -10 4 -10 6 0 11 5 11 10 0 6 -2 10 -4 10 -3 0
-8 -4 -11 -10z"/>
<path d="M9837 3463 c-16 -15 -6 -34 15 -31 29 4 38 38 10 38 -10 0 -22 -3
-25 -7z"/>
<path d="M8762 3430 c-15 -12 -22 -28 -20 -42 3 -20 6 -17 25 20 13 23 22 42
20 42 -1 -1 -12 -9 -25 -20z"/>
<path d="M8316 3424 c-8 -25 -6 -40 4 -37 4 1 6 -7 3 -17 -4 -14 0 -20 12 -20
15 0 17 6 12 37 -8 44 -23 62 -31 37z"/>
<path d="M8986 3409 l-40 -30 -14 23 c-13 22 -13 22 -8 -9 5 -31 -13 -51 -34
-38 -4 3 -6 -5 -3 -17 3 -17 -1 -14 -19 12 -12 19 -23 39 -23 45 0 16 -28 12
-33 -5 -4 -12 -2 -13 9 -3 12 9 14 5 14 -28 0 -30 -6 -42 -25 -56 -36 -25 -53
-43 -41 -43 6 0 11 -14 11 -32 0 -17 3 -28 8 -24 4 4 7 20 7 34 0 20 6 28 23
30 12 2 22 8 22 13 0 5 6 9 13 7 17 -4 137 74 137 89 0 6 8 9 19 6 21 -5 47
29 36 47 -9 14 -16 12 -59 -21z"/>
<path d="M8717 3404 c-4 -4 -7 -14 -7 -23 0 -11 3 -12 11 -4 6 6 10 16 7 23
-2 6 -7 8 -11 4z"/>
<path d="M8650 3342 c0 -18 4 -32 8 -32 9 0 8 47 -1 57 -4 3 -7 -8 -7 -25z"/>
<path d="M8710 3321 c0 -21 -5 -52 -11 -70 -6 -18 -9 -34 -6 -37 9 -9 24 28
30 71 3 22 9 48 12 58 5 12 2 17 -9 17 -12 0 -16 -10 -16 -39z"/>
<path d="M8550 3337 c0 -8 7 -14 15 -14 11 0 12 4 4 14 -6 7 -13 13 -15 13 -2
0 -4 -6 -4 -13z"/>
<path d="M8436 3323 c-6 -14 -5 -15 5 -6 7 7 10 15 7 18 -3 3 -9 -2 -12 -12z"/>
<path d="M8733 3289 c-2 -16 2 -17 18 -9 24 13 24 16 1 22 -12 4 -18 -1 -19
-13z"/>
<path d="M8383 3278 c-9 -10 -8 -18 3 -32 11 -16 11 -23 1 -36 -6 -9 -2 -5 11
8 26 27 27 32 9 56 -11 15 -15 15 -24 4z m21 -24 c3 -8 2 -12 -4 -9 -6 3 -10
10 -10 16 0 14 7 11 14 -7z"/>
<path d="M8699 3196 c-1 -3 -3 -10 -4 -16 -1 -5 -3 -14 -4 -18 0 -5 -12 -14
-25 -21 -15 -8 -26 -25 -28 -42 -6 -38 12 -38 57 2 41 36 64 72 41 63 -9 -3
-13 1 -13 12 2 15 -21 34 -24 20z"/>
<path d="M7845 3170 c-3 -5 -2 -10 4 -10 5 0 13 5 16 10 3 6 2 10 -4 10 -5 0
-13 -4 -16 -10z"/>
<path d="M3435 3000 c-16 -7 -17 -9 -3 -9 9 -1 20 4 23 9 7 11 7 11 -20 0z"/>
<path d="M4230 2990 c20 -13 53 -13 45 0 -3 6 -18 10 -33 10 -21 0 -24 -2 -12
-10z"/>
<path d="M6238 2263 c6 -2 18 -2 25 0 6 3 1 5 -13 5 -14 0 -19 -2 -12 -5z"/>
<path d="M0 400 l0 -400 5000 0 5000 0 0 400 0 400 -5000 0 -5000 0 0 -400z
m2192 123 c23 -20 23 -57 1 -74 -15 -11 -16 -11 -5 1 27 31 11 72 -33 83 -19
4 -19 5 -1 6 11 0 28 -6 38 -16z m-69 -8 c-3 -9 -8 -14 -10 -11 -3 3 -2 9 2
15 9 16 15 13 8 -4z m-1760 -114 c22 -61 43 -108 47 -104 4 4 24 56 45 116 21
59 42 107 47 107 11 0 9 -5 -42 -149 -23 -64 -44 -107 -53 -109 -15 -3 -17 0
-67 143 -15 44 -31 88 -36 99 -5 13 -3 17 6 14 8 -2 32 -55 53 -117z m517 89
c0 -23 4 -30 20 -30 11 0 20 -4 20 -10 0 -5 -10 -10 -21 -10 -20 0 -21 -4 -17
-71 3 -55 8 -74 23 -85 10 -8 16 -16 13 -19 -11 -11 -40 8 -49 32 -12 33 -12
223 1 223 6 0 10 -13 10 -30z m515 16 c24 -11 33 -20 29 -30 -5 -14 -9 -14
-34 -1 -36 18 -61 19 -84 2 -28 -21 -9 -45 49 -62 87 -25 108 -74 54 -127 -29
-29 -33 -30 -90 -25 -68 6 -72 8 -64 29 5 13 12 14 40 5 50 -15 100 1 100 33
0 16 -8 28 -25 36 -113 52 -119 58 -106 110 11 42 70 55 131 30z m105 -16 c0
-25 4 -30 25 -30 16 0 25 -6 25 -15 0 -9 -9 -15 -25 -15 -25 0 -26 -1 -23 -62
3 -54 6 -64 26 -73 12 -5 22 -13 22 -18 0 -17 -31 -18 -55 -3 -24 16 -25 20
-25 131 0 96 3 115 15 115 10 0 15 -10 15 -30z m482 -30 l3 -61 35 30 c19 17
44 30 55 31 16 0 12 -7 -20 -40 l-39 -40 42 -60 c40 -57 41 -60 20 -60 -16 0
-32 14 -53 45 -16 25 -33 45 -37 45 -5 0 -8 -20 -8 -45 0 -38 -3 -45 -20 -45
-19 0 -20 7 -20 130 0 122 1 130 20 130 16 0 19 -8 22 -60z m193 28 c1 -20 -2
-24 -11 -17 -8 7 -14 6 -17 -3 -3 -7 -6 2 -6 20 -1 27 3 33 17 30 11 -2 17
-13 17 -30z m-44 -35 c13 -16 12 -17 -3 -4 -17 13 -22 21 -14 21 2 0 10 -8 17
-17z m-1502 -19 c12 -15 21 -40 21 -55 0 -29 0 -29 -65 -29 -72 0 -83 -12 -44
-51 17 -17 30 -20 65 -16 43 4 59 -5 28 -17 -69 -27 -134 19 -134 95 0 87 82
133 129 73z m191 16 c17 -11 10 -13 -40 -10 -47 2 -75 -28 -75 -80 0 -55 26
-80 82 -80 27 0 42 -4 38 -10 -9 -15 -78 -12 -102 5 -50 35 -50 135 0 170 24
17 74 20 97 5z m265 -13 c20 -16 28 -35 32 -69 5 -42 3 -50 -25 -78 -41 -40
-83 -41 -123 -1 -84 85 27 226 116 148z m85 7 c0 -14 2 -14 22 0 24 17 38 20
38 9 0 -5 -14 -16 -30 -25 -29 -17 -30 -19 -30 -93 0 -43 -4 -75 -10 -75 -6 0
-10 40 -10 100 0 60 4 100 10 100 6 0 10 -7 10 -16z m545 -9 c20 -19 25 -34
25 -75 0 -63 -30 -100 -82 -100 -66 0 -103 56 -87 130 16 69 95 94 144 45z
m184 16 c21 -13 3 -32 -24 -25 -52 13 -88 -41 -65 -97 13 -31 39 -44 69 -34
23 7 39 -14 20 -26 -50 -32 -129 20 -129 85 0 67 32 104 90 105 14 0 31 -3 39
-8z m5400 -94 c8 -26 17 -47 21 -47 4 0 13 21 21 47 8 25 20 48 26 50 8 3 4
-21 -11 -64 -13 -38 -29 -68 -36 -68 -7 0 -23 30 -36 68 -15 43 -19 67 -11 64
6 -2 18 -25 26 -50z m638 38 c2 -6 -9 -11 -23 -10 -39 0 -42 -23 -5 -36 34
-12 49 -43 31 -64 -13 -16 -38 -19 -64 -9 -27 10 -18 22 15 20 43 -2 49 22 10
35 -34 12 -49 43 -30 65 13 16 60 15 66 -1z m333 -20 c0 -35 16 -47 26 -20 4
8 13 15 22 15 13 0 13 -3 -2 -19 -16 -18 -16 -21 -1 -50 19 -38 8 -40 -22 -3
l-22 27 -1 -27 c0 -16 -4 -28 -10 -28 -6 0 -10 30 -10 70 0 40 4 70 10 70 6 0
10 -16 10 -35z m580 32 c0 -4 -34 -104 -45 -136 -3 -8 -8 -11 -11 -8 -8 7 38
147 48 147 4 0 8 -2 8 -3z m70 -57 c0 -33 4 -60 10 -60 6 0 10 -4 10 -10 0 -5
-13 -10 -30 -10 -16 0 -30 5 -30 10 0 6 5 10 10 10 6 0 10 20 10 45 0 38 -2
43 -17 38 -16 -6 -16 -4 1 15 29 34 36 27 36 -38z m122 8 c2 -29 2 -61 0 -70
-5 -22 -22 -24 -22 -3 0 10 -10 15 -30 15 -16 0 -30 3 -30 6 0 16 56 104 67
104 6 0 13 -22 15 -52z m122 30 c44 -63 -17 -154 -68 -102 -9 9 -16 32 -16 54
0 64 52 94 84 48z m118 -30 c2 -29 2 -61 0 -70 -5 -22 -22 -24 -22 -3 0 10
-10 15 -30 15 -16 0 -30 3 -30 6 0 16 56 104 67 104 6 0 13 -22 15 -52z m118
33 c-5 -11 -15 -23 -20 -26 -6 -4 -1 -14 12 -25 20 -15 21 -21 10 -44 -11 -26
-34 -32 -66 -20 -28 11 -17 24 14 18 22 -5 31 -2 36 11 6 16 -3 28 -31 39 -6
2 -5 9 3 17 18 19 15 29 -8 29 -11 0 -20 5 -20 10 0 6 18 10 40 10 37 0 40 -2
30 -19z m110 0 c-5 -11 -15 -23 -20 -26 -6 -4 -2 -14 11 -24 40 -32 1 -82 -51
-66 -31 10 -23 25 10 19 22 -5 31 -2 36 11 6 16 -3 28 -31 39 -6 2 -5 9 3 17
18 19 15 29 -8 29 -11 0 -20 5 -20 10 0 6 18 10 40 10 37 0 40 -2 30 -19z m80
-41 c0 -33 4 -60 10 -60 6 0 10 -4 10 -10 0 -5 -13 -10 -30 -10 -16 0 -30 5
-30 10 0 6 5 10 10 10 6 0 10 20 10 45 0 38 -2 43 -17 38 -16 -6 -16 -4 1 15
29 34 36 27 36 -38z m130 55 c0 -6 -60 -127 -66 -134 -2 -2 -7 -2 -10 1 -3 3
6 29 20 57 14 28 26 53 26 56 0 3 -13 5 -30 5 -16 0 -30 5 -30 10 0 6 20 10
45 10 25 0 45 -2 45 -5z m-2079 -53 c-15 -5 -14 -59 2 -65 6 -2 9 -7 6 -11
-15 -17 -37 8 -41 47 -6 59 0 72 24 50 11 -10 15 -19 9 -21z m359 13 c9 -10 9
-15 1 -15 -15 0 -14 -57 2 -63 6 -2 9 -8 4 -13 -12 -13 -34 18 -40 58 -7 49 8
64 33 33z m-532 -7 c23 -23 13 -38 -24 -38 -46 0 -41 -23 7 -30 27 -4 30 -7
16 -13 -28 -11 -44 -9 -61 9 -32 31 -14 84 29 84 12 0 26 -5 33 -12z m109 5
c14 -6 10 -9 -17 -13 -29 -4 -35 -9 -35 -30 0 -21 5 -26 33 -28 36 -4 34 -22
-3 -22 -28 0 -55 24 -55 50 0 22 25 50 45 50 7 0 22 -3 32 -7z m177 -9 c21
-20 20 -43 -1 -66 -20 -22 -46 -23 -67 -2 -31 30 -9 84 34 84 10 0 26 -7 34
-16z m86 6 c0 -4 -7 -10 -15 -14 -9 -3 -15 -19 -15 -41 0 -19 -4 -35 -10 -35
-5 0 -10 22 -10 49 0 45 2 49 25 49 14 0 25 -4 25 -8z m274 -6 c21 -20 20 -43
-1 -66 -20 -22 -46 -23 -67 -2 -31 30 -9 84 34 84 10 0 26 -7 34 -16z m113 9
c14 -6 10 -9 -17 -13 -29 -4 -35 -9 -35 -30 0 -21 5 -26 33 -28 36 -4 34 -22
-3 -22 -28 0 -55 24 -55 50 0 22 25 50 45 50 7 0 22 -3 32 -7z m258 -2 c3 -5
-9 -11 -27 -13 -28 -2 -33 -7 -33 -28 0 -21 5 -26 33 -28 36 -4 34 -22 -3 -22
-28 0 -55 24 -55 50 0 37 67 69 85 41z m99 -7 c21 -20 20 -43 -1 -66 -20 -22
-46 -23 -67 -2 -31 30 -9 84 34 84 10 0 26 -7 34 -16z m112 5 c8 -7 14 -6 19
1 10 16 42 12 49 -6 10 -25 7 -84 -4 -84 -5 0 -10 18 -10 41 0 33 -3 40 -17
37 -13 -2 -19 -14 -21 -41 -4 -50 -22 -47 -22 4 0 36 -2 40 -22 37 -19 -2 -24
-10 -26 -40 -5 -55 -22 -46 -22 10 0 48 0 49 32 50 18 0 38 -4 44 -9z m-326
-79 c0 -5 -4 -10 -10 -10 -5 0 -10 5 -10 10 0 6 5 10 10 10 6 0 10 -4 10 -10z"/>
<path d="M2150 500 c0 -5 5 -10 10 -10 6 0 10 5 10 10 0 6 -4 10 -10 10 -5 0
-10 -4 -10 -10z"/>
<path d="M536 418 c-28 -39 -21 -48 39 -48 59 0 67 9 45 51 -15 27 -64 25 -84
-3z"/>
<path d="M986 424 c-50 -50 -21 -144 44 -144 48 0 80 50 66 104 -13 53 -75 75
-110 40z"/>
<path d="M1616 408 c-22 -31 -20 -74 4 -98 26 -26 55 -25 74 2 32 46 8 118
-39 118 -13 0 -31 -10 -39 -22z"/>
<path d="M8997 350 c-18 -29 -18 -30 2 -30 17 0 21 6 21 30 0 17 -1 30 -3 30
-1 0 -11 -13 -20 -30z"/>
<path d="M9104 365 c-9 -38 3 -75 26 -75 13 0 22 9 26 25 9 38 -3 75 -26 75
-13 0 -22 -9 -26 -25z"/>
<path d="M9237 350 c-18 -29 -18 -30 2 -30 17 0 21 6 21 30 0 17 -1 30 -3 30
-1 0 -11 -13 -20 -30z"/>
<path d="M7415 340 c-4 -6 5 -10 19 -10 14 0 26 5 26 10 0 6 -9 10 -19 10 -11
0 -23 -4 -26 -10z"/>
<path d="M7694 336 c-10 -26 4 -48 28 -44 17 2 23 10 23 28 0 18 -6 26 -23 28
-13 2 -25 -3 -28 -12z"/>
<path d="M8054 336 c-10 -26 4 -48 28 -44 17 2 23 10 23 28 0 18 -6 26 -23 28
-13 2 -25 -3 -28 -12z"/>
<path d="M8524 336 c-10 -26 4 -48 28 -44 17 2 23 10 23 28 0 18 -6 26 -23 28
-13 2 -25 -3 -28 -12z"/>
</g>
</svg>
