<?xml version="1.0" standalone="no"?>
<!DOCTYPE svg PUBLIC "-//W3C//DTD SVG 20010904//EN"
 "http://www.w3.org/TR/2001/REC-SVG-20010904/DTD/svg10.dtd">
<svg version="1.0" xmlns="http://www.w3.org/2000/svg"
 width="841.000000pt" height="302.000000pt" viewBox="0 0 841.000000 302.000000"
 preserveAspectRatio="xMidYMid meet">

<g transform="translate(0.000000,302.000000) scale(0.100000,-0.100000)"
fill="#000000" stroke="none">
<path d="M450 2699 c-30 -10 -64 -22 -75 -26 -11 -4 -54 -24 -95 -45 -79 -40
-253 -182 -258 -211 -5 -28 39 -21 121 18 41 19 79 35 84 35 6 0 23 14 36 30
27 31 64 39 85 18 34 -34 -6 -84 -119 -145 -38 -21 -69 -43 -69 -49 0 -18 35
-44 58 -44 12 0 51 20 88 45 36 25 73 46 82 47 9 1 98 3 197 3 200 0 209 2
286 72 22 20 42 33 46 29 4 -3 1 -12 -5 -18 -17 -17 -15 -28 7 -28 35 0 195
-88 258 -142 33 -29 108 -102 165 -162 56 -60 141 -141 188 -181 107 -88 308
-210 375 -226 65 -15 153 -63 251 -136 150 -111 371 -223 473 -239 40 -6 43
-6 33 12 -6 10 -47 55 -91 99 -81 81 -100 120 -31 65 54 -43 198 -219 247
-304 74 -127 169 -205 251 -206 17 0 32 -4 32 -10 0 -13 -76 -13 -101 0 -10 6
-19 8 -19 5 0 -10 102 -210 122 -237 11 -16 17 -28 14 -28 -3 0 -59 27 -123
59 -251 126 -451 194 -652 221 -96 13 -156 8 -183 -16 -22 -20 -23 -63 -3 -90
42 -55 -15 -90 -130 -80 -38 3 -81 8 -95 11 -14 2 -36 7 -50 10 -14 2 -38 7
-55 10 -40 7 -365 7 -435 0 -79 -8 -194 -25 -198 -30 -17 -17 23 -19 120 -8
174 22 449 18 588 -6 129 -23 178 -26 232 -11 70 20 86 63 48 125 -17 28 -18
34 -5 45 37 31 161 22 345 -26 146 -38 280 -91 449 -176 85 -42 157 -75 162
-73 16 11 20 -17 5 -40 -31 -48 -123 -56 -228 -20 -128 43 -227 56 -403 51
-166 -4 -238 -13 -420 -55 -170 -39 -215 -54 -215 -68 0 -9 8 -12 23 -8 12 3
79 19 149 35 382 90 603 94 863 16 85 -26 172 -29 212 -7 13 6 41 36 63 65 46
64 87 82 161 72 63 -9 88 -18 314 -120 233 -106 313 -153 388 -227 31 -32 66
-59 76 -61 11 -2 44 22 89 64 39 36 101 84 139 106 65 38 216 112 228 112 3 0
45 18 93 41 170 80 229 96 303 84 39 -7 99 -54 99 -78 0 -18 50 -56 88 -66 55
-16 79 -14 193 18 167 47 225 54 403 48 88 -3 172 -8 186 -11 14 -3 52 -11 85
-17 33 -6 124 -26 203 -45 166 -40 152 -38 152 -20 0 10 -44 25 -147 50 -265
63 -320 70 -533 70 -172 0 -204 -3 -270 -22 -201 -60 -264 -63 -314 -17 -25
23 -27 61 -2 52 6 -2 72 26 146 64 175 87 210 103 322 140 241 81 444 111 483
73 9 -9 15 -19 13 -23 -2 -3 -12 -28 -22 -55 l-20 -49 23 -18 c53 -43 120 -48
282 -18 167 31 546 26 687 -8 27 -6 32 23 5 31 -47 14 -242 27 -401 27 -136 0
-203 -4 -291 -20 -135 -25 -189 -26 -236 -7 -41 17 -42 23 -15 77 13 24 18 48
15 60 -33 104 -433 24 -812 -162 -87 -42 -160 -76 -162 -74 -2 2 6 16 17 32
11 15 43 75 72 132 39 78 47 102 33 96 -31 -14 -103 -18 -103 -6 0 6 10 11 21
11 89 0 190 86 281 240 31 52 73 113 93 135 83 92 159 165 166 158 5 -5 -33
-51 -82 -103 -50 -52 -86 -96 -80 -98 24 -8 144 32 241 80 57 29 164 94 237
143 175 118 214 140 278 154 55 12 224 108 325 184 75 56 120 98 295 272 124
125 165 159 235 198 47 26 102 50 123 53 41 7 44 11 20 29 -9 7 -13 17 -9 23
4 7 23 -5 51 -31 76 -73 155 -88 353 -68 93 9 142 -4 216 -57 62 -44 89 -50
119 -28 30 23 19 41 -48 79 -80 46 -135 93 -135 116 0 45 62 56 95 17 38 -47
255 -129 255 -98 0 14 -119 124 -186 173 -65 48 -235 124 -300 135 -47 7 -256
-25 -389 -61 -49 -13 -117 -29 -150 -35 -138 -26 -348 -107 -437 -168 -73 -50
-547 -341 -597 -367 -49 -24 -169 -58 -251 -70 -83 -12 -264 -63 -320 -89 -89
-42 -196 -106 -179 -106 9 0 36 7 59 15 49 17 60 18 60 6 0 -10 -67 -35 -135
-50 -27 -6 -120 -15 -205 -21 -85 -5 -182 -17 -215 -25 -66 -17 -186 -72 -224
-103 l-23 -19 61 -13 c35 -7 61 -18 61 -25 0 -15 -90 4 -174 35 -28 11 -54 20
-57 20 -4 0 -4 -15 0 -32 4 -18 3 -116 -2 -217 l-8 -185 31 -29 c18 -16 29
-35 26 -43 -6 -17 216 -129 277 -140 20 -3 37 -10 37 -15 0 -26 -111 7 -225
67 -47 26 -87 45 -88 43 -1 -2 -17 -34 -36 -72 -18 -37 -44 -75 -56 -85 -12
-10 -35 -43 -50 -72 -57 -112 -250 -342 -317 -376 -35 -18 -101 -18 -137 1
-66 34 -256 266 -317 387 -19 37 -38 68 -42 68 -11 0 -60 81 -67 113 -4 15
-11 30 -16 33 -5 3 -59 -20 -122 -50 -67 -33 -133 -58 -162 -62 -66 -9 -50 8
30 31 85 24 255 112 255 133 0 9 11 28 25 42 l26 27 -12 174 c-9 128 -10 186
-2 218 10 38 10 42 -5 37 -39 -12 -179 -54 -205 -60 -21 -5 -28 -3 -25 6 3 7
31 20 63 29 l58 15 -29 21 c-99 70 -222 109 -367 118 -171 9 -228 16 -306 37
-73 18 -127 48 -90 48 9 0 42 -9 74 -20 62 -21 97 -26 55 -8 -14 7 -63 33
-110 59 -122 68 -204 94 -455 144 -156 32 -243 70 -397 176 -15 11 -29 19 -32
19 -6 0 -143 85 -291 180 -187 121 -291 167 -475 209 -52 12 -149 35 -215 51
-66 16 -142 32 -168 35 -27 4 -59 9 -70 11 -65 14 -125 12 -177 -7z m3680
-2296 c0 -9 -32 -43 -40 -43 -4 0 -15 11 -24 25 l-16 25 40 0 c22 0 40 -3 40
-7z"/>
<path d="M4015 1993 c-71 -19 -182 -91 -246 -159 -91 -98 -139 -217 -133 -329
7 -129 14 -195 23 -217 23 -62 156 -145 277 -174 79 -19 227 -21 297 -5 153
36 276 114 297 189 6 20 13 96 17 169 7 153 0 183 -75 296 -87 133 -235 227
-367 233 -38 2 -79 0 -90 -3z"/>
<path d="M3670 1222 c0 -18 89 -89 143 -115 104 -50 146 -60 267 -61 126 -1
204 15 299 61 59 28 116 74 133 107 8 15 2 13 -23 -10 -58 -54 -173 -103 -293
-124 -161 -29 -375 22 -485 116 -23 20 -41 31 -41 26z"/>
<path d="M3650 1182 c0 -10 21 -49 48 -87 45 -65 50 -69 102 -81 73 -17 139
-47 195 -89 64 -50 122 -49 195 1 68 47 145 80 202 89 42 6 48 11 89 73 24 37
47 77 51 90 5 19 -1 16 -40 -20 -57 -54 -137 -93 -245 -120 -193 -49 -425 4
-557 125 -32 31 -40 34 -40 19z"/>
<path d="M3630 1134 c6 -15 26 -48 44 -73 19 -25 48 -83 65 -128 24 -62 42
-91 75 -121 70 -65 122 -66 200 -3 53 43 96 42 160 -4 27 -19 64 -37 81 -41
71 -13 150 59 192 176 15 41 44 96 64 123 36 44 55 84 47 92 -2 2 -26 -31 -53
-74 l-50 -78 -69 -12 c-85 -14 -128 -34 -185 -83 -34 -30 -53 -38 -85 -39 -74
-2 -90 3 -130 38 -48 44 -102 68 -188 84 l-66 12 -48 74 c-52 80 -70 100 -54
57z m272 -198 c45 -22 98 -73 98 -96 0 -18 -54 -50 -84 -50 -51 0 -146 85
-146 130 0 43 60 50 132 16z m492 18 c34 -13 9 -82 -44 -127 -43 -37 -91 -44
-131 -20 -43 24 -45 35 -12 73 44 53 141 91 187 74z"/>
<path d="M4564 1102 c-12 -26 -25 -60 -28 -77 -4 -16 -9 -39 -12 -50 -3 -11 9
3 27 30 21 32 34 67 37 98 2 26 3 47 1 47 -2 -1 -14 -22 -25 -48z"/>
<path d="M3611 1080 c6 -25 19 -58 30 -75 19 -28 20 -28 15 -5 -4 14 -9 36
-12 50 -3 14 -14 37 -24 50 l-19 25 10 -45z"/>
<path d="M4497 1013 c-2 -4 -12 -31 -21 -60 -28 -85 -87 -167 -138 -192 -55
-26 -83 -26 -132 -2 l-38 20 5 -22 c3 -12 9 -44 12 -70 10 -63 -7 -76 -92 -77
-88 0 -104 17 -91 94 6 32 8 59 5 62 -3 3 -17 -2 -31 -11 -37 -25 -106 -15
-152 20 -41 32 -91 106 -122 185 -13 31 -20 42 -17 25 11 -61 86 -193 167
-295 134 -168 199 -214 274 -196 54 14 229 206 309 339 36 59 81 174 72 183
-3 3 -7 2 -10 -3z m-334 -422 c15 -1 27 -5 27 -11 0 -6 -40 -10 -100 -10 -55
0 -100 4 -100 9 0 11 45 17 105 14 22 -1 52 -2 68 -2z"/>
<path d="M4053 812 c-7 -4 -18 -43 -24 -86 -12 -91 -9 -96 62 -96 73 0 81 11
64 98 -8 40 -17 77 -20 82 -7 12 -65 13 -82 2z"/>
<path d="M3530 468 c-49 -17 -67 -19 -160 -12 -220 17 -524 10 -690 -16 -254
-41 -372 -68 -367 -84 4 -13 13 -12 172 19 353 69 536 80 900 50 77 -6 99 -4
154 14 76 25 142 27 225 5 79 -20 149 -56 208 -105 79 -66 97 -47 21 21 -128
113 -325 159 -463 108z"/>
<path d="M4420 476 c-30 -7 -80 -24 -110 -38 -66 -30 -160 -103 -160 -123 0
-22 6 -19 68 29 69 53 85 61 175 92 90 31 175 31 258 3 53 -19 74 -21 148 -14
363 31 548 19 949 -58 113 -22 159 -22 115 1 -21 11 -238 53 -403 79 -127 19
-490 24 -656 9 -80 -8 -98 -6 -152 13 -70 24 -147 26 -232 7z"/>
</g>
</svg>
